<svg width="36" height="36" viewBox="0 0 36 36" fill="none" xmlns="http://www.w3.org/2000/svg">
<g style="mix-blend-mode:plus-darker">
<path d="M11.6172 27.6953C10.0078 27.6953 9.20312 27.1458 9.20312 26.0469C9.20312 25.5 9.33333 24.9297 9.59375 24.3359C9.85938 23.7422 10.2448 23.1667 10.75 22.6094C11.2552 22.0521 11.8646 21.5495 12.5781 21.1016C13.2917 20.6484 14.1042 20.2891 15.0156 20.0234C15.9271 19.7526 16.9193 19.6172 17.9922 19.6172C19.0703 19.6172 20.0651 19.7526 20.9766 20.0234C21.888 20.2891 22.7005 20.6484 23.4141 21.1016C24.1276 21.5495 24.737 22.0521 25.2422 22.6094C25.7474 23.1667 26.1302 23.7422 26.3906 24.3359C26.6562 24.9297 26.7891 25.5 26.7891 26.0469C26.7891 27.1458 25.9844 27.6953 24.375 27.6953H11.6172ZM11.3281 26.1562H24.6641C24.8307 26.1562 24.9479 26.1302 25.0156 26.0781C25.0833 26.026 25.1172 25.9401 25.1172 25.8203C25.1172 25.4818 25.0156 25.1042 24.8125 24.6875C24.6094 24.276 24.3099 23.8646 23.9141 23.4531C23.5234 23.0365 23.0391 22.6562 22.4609 22.3125C21.888 21.9635 21.2266 21.6849 20.4766 21.4766C19.7318 21.2682 18.9036 21.1641 17.9922 21.1641C17.0859 21.1641 16.2578 21.2682 15.5078 21.4766C14.763 21.6849 14.1016 21.9635 13.5234 22.3125C12.9505 22.6562 12.4661 23.0365 12.0703 23.4531C11.6797 23.8646 11.3828 24.276 11.1797 24.6875C10.9766 25.1042 10.875 25.4818 10.875 25.8203C10.875 25.9401 10.9089 26.026 10.9766 26.0781C11.0443 26.1302 11.1615 26.1562 11.3281 26.1562ZM18.0078 18.3672C17.4036 18.3672 16.8385 18.2474 16.3125 18.0078C15.7917 17.763 15.3307 17.4245 14.9297 16.9922C14.5339 16.5599 14.224 16.0599 14 15.4922C13.776 14.9245 13.6641 14.3125 13.6641 13.6562C13.6641 13.0208 13.776 12.4245 14 11.8672C14.224 11.3047 14.5339 10.8099 14.9297 10.3828C15.3307 9.95573 15.7943 9.6224 16.3203 9.38281C16.8464 9.14323 17.4089 9.02344 18.0078 9.02344C18.6016 9.02344 19.1615 9.14323 19.6875 9.38281C20.2135 9.6224 20.6745 9.95312 21.0703 10.375C21.4714 10.7969 21.7839 11.2865 22.0078 11.8438C22.2318 12.401 22.3438 13 22.3438 13.6406C22.3438 14.2969 22.2318 14.9115 22.0078 15.4844C21.7839 16.0521 21.4714 16.5521 21.0703 16.9844C20.6745 17.4167 20.2135 17.7552 19.6875 18C19.1667 18.2448 18.6068 18.3672 18.0078 18.3672ZM18.0078 16.8359C18.5026 16.8359 18.9583 16.6953 19.375 16.4141C19.7917 16.1328 20.1224 15.75 20.3672 15.2656C20.6172 14.7812 20.7422 14.2396 20.7422 13.6406C20.7422 13.0573 20.6172 12.5339 20.3672 12.0703C20.1224 11.6016 19.7917 11.2344 19.375 10.9688C18.9635 10.6979 18.5078 10.5625 18.0078 10.5625C17.5078 10.5625 17.0495 10.7005 16.6328 10.9766C16.2214 11.2474 15.8906 11.6172 15.6406 12.0859C15.3906 12.5495 15.2656 13.0729 15.2656 13.6562C15.2656 14.2552 15.3906 14.7969 15.6406 15.2812C15.8906 15.7604 16.2214 16.1406 16.6328 16.4219C17.0495 16.6979 17.5078 16.8359 18.0078 16.8359Z" fill="#4875B0"/>
</g>
</svg>
