<svg width="36" height="36" viewBox="0 0 36 36" fill="none" xmlns="http://www.w3.org/2000/svg">
<g style="mix-blend-mode:plus-darker">
<path d="M14.2656 24.0625C13.5417 24.0625 12.9844 23.8568 12.5938 23.4453C12.2083 23.0339 11.9609 22.474 11.8516 21.7656L10.25 10.7812H6.92969C6.71094 10.7812 6.52083 10.7005 6.35938 10.5391C6.20312 10.3724 6.125 10.1797 6.125 9.96094C6.125 9.73698 6.20312 9.54427 6.35938 9.38281C6.52083 9.21615 6.71094 9.13281 6.92969 9.13281H10.4688C10.9635 9.13281 11.3073 9.23177 11.5 9.42969C11.6979 9.6224 11.8229 9.90885 11.875 10.2891L13.5312 21.5703C13.5729 21.8516 13.6745 22.0781 13.8359 22.25C13.9974 22.4167 14.2109 22.5 14.4766 22.5H26.0938C26.2969 22.5 26.4766 22.5729 26.6328 22.7188C26.7891 22.8594 26.8672 23.0469 26.8672 23.2812C26.8672 23.5104 26.7891 23.6979 26.6328 23.8438C26.4766 23.9896 26.2969 24.0625 26.0938 24.0625H14.2656ZM12.5156 20.3984L12.4922 18.8359H25.9531C26.224 18.8359 26.4349 18.7552 26.5859 18.5938C26.737 18.4271 26.8333 18.2005 26.875 17.9141L27.5625 13.1406H11.5703L11.5547 11.5781H28.3672C28.6849 11.5781 28.9297 11.6615 29.1016 11.8281C29.2786 11.9948 29.3672 12.2109 29.3672 12.4766C29.3672 12.5234 29.362 12.5859 29.3516 12.6641C29.3464 12.737 29.3385 12.8047 29.3281 12.8672L28.5391 18.0625C28.4349 18.7917 28.1875 19.3646 27.7969 19.7812C27.4062 20.1927 26.8411 20.3984 26.1016 20.3984H12.5156ZM15.2031 29.0469C14.8906 29.0469 14.6042 28.9714 14.3438 28.8203C14.0885 28.6693 13.8828 28.4635 13.7266 28.2031C13.5755 27.9479 13.5 27.6641 13.5 27.3516C13.5 27.0339 13.5755 26.7474 13.7266 26.4922C13.8828 26.237 14.0885 26.0339 14.3438 25.8828C14.6042 25.7318 14.8906 25.6562 15.2031 25.6562C15.5156 25.6562 15.7995 25.7318 16.0547 25.8828C16.3099 26.0339 16.513 26.237 16.6641 26.4922C16.8203 26.7474 16.8984 27.0339 16.8984 27.3516C16.8984 27.6641 16.8203 27.9479 16.6641 28.2031C16.513 28.4635 16.3099 28.6693 16.0547 28.8203C15.7995 28.9714 15.5156 29.0469 15.2031 29.0469ZM24.4609 29.0469C24.1484 29.0469 23.862 28.9714 23.6016 28.8203C23.3464 28.6693 23.1406 28.4635 22.9844 28.2031C22.8333 27.9479 22.7578 27.6641 22.7578 27.3516C22.7578 27.0339 22.8333 26.7474 22.9844 26.4922C23.1406 26.237 23.3464 26.0339 23.6016 25.8828C23.862 25.7318 24.1484 25.6562 24.4609 25.6562C24.7786 25.6562 25.0651 25.7318 25.3203 25.8828C25.5807 26.0339 25.7865 26.237 25.9375 26.4922C26.0885 26.7474 26.1641 27.0339 26.1641 27.3516C26.1641 27.6641 26.0885 27.9479 25.9375 28.2031C25.7865 28.4635 25.5807 28.6693 25.3203 28.8203C25.0651 28.9714 24.7786 29.0469 24.4609 29.0469Z" fill="#4875B0"/>
</g>
</svg>
