<svg width="36" height="36" viewBox="0 0 36 36" fill="none" xmlns="http://www.w3.org/2000/svg">
<g style="mix-blend-mode:plus-darker">
<path d="M8.34375 23.9609C8.34375 23.6068 8.4375 23.2682 8.625 22.9453C8.8125 22.6224 9.04688 22.3099 9.32812 22.0078C9.61458 21.7057 9.90625 21.4089 10.2031 21.1172C10.3958 20.9193 10.5521 20.6771 10.6719 20.3906C10.7969 20.1042 10.8932 19.7891 10.9609 19.4453C11.0339 19.0964 11.0938 18.7318 11.1406 18.3516C11.1875 17.9661 11.2292 17.5781 11.2656 17.1875C11.3229 15.9896 11.4896 14.9245 11.7656 13.9922C12.0417 13.0599 12.4505 12.2786 12.9922 11.6484C13.5391 11.013 14.2422 10.5469 15.1016 10.25C15.2786 9.57812 15.6224 9.02083 16.1328 8.57812C16.6484 8.13021 17.2708 7.90625 18 7.90625C18.7292 7.90625 19.349 8.13021 19.8594 8.57812C20.375 9.02083 20.7214 9.57812 20.8984 10.25C21.7578 10.5469 22.4583 11.013 23 11.6484C23.5469 12.2786 23.9583 13.0599 24.2344 13.9922C24.5104 14.9245 24.6797 15.9896 24.7422 17.1875C24.7786 17.5781 24.8177 17.9661 24.8594 18.3516C24.9062 18.7318 24.9661 19.0964 25.0391 19.4453C25.112 19.7891 25.2083 20.1042 25.3281 20.3906C25.4479 20.6771 25.6068 20.9193 25.8047 21.1172C26.1016 21.4089 26.3906 21.7057 26.6719 22.0078C26.9583 22.3099 27.1953 22.6224 27.3828 22.9453C27.5703 23.2682 27.6641 23.6068 27.6641 23.9609C27.6641 24.3411 27.5312 24.6458 27.2656 24.875C27 25.1094 26.6354 25.2266 26.1719 25.2266H21.7578C21.7422 25.7057 21.638 26.1589 21.4453 26.5859C21.2578 27.0182 20.9974 27.401 20.6641 27.7344C20.3359 28.0677 19.9453 28.3281 19.4922 28.5156C19.0443 28.7083 18.5469 28.8047 18 28.8047C17.4583 28.8047 16.9609 28.7083 16.5078 28.5156C16.0547 28.3281 15.6615 28.0677 15.3281 27.7344C15 27.401 14.7422 27.0182 14.5547 26.5859C14.3672 26.1536 14.2656 25.7005 14.25 25.2266H9.82031C9.36719 25.2266 9.00781 25.1094 8.74219 24.875C8.47656 24.6458 8.34375 24.3411 8.34375 23.9609ZM10.4375 23.6094H25.5469V23.4922C25.4792 23.3776 25.3724 23.2396 25.2266 23.0781C25.0807 22.9115 24.9167 22.7318 24.7344 22.5391C24.5521 22.3411 24.375 22.1458 24.2031 21.9531C24.0052 21.7344 23.8385 21.4688 23.7031 21.1562C23.5729 20.8385 23.4609 20.487 23.3672 20.1016C23.2786 19.7109 23.2083 19.2891 23.1562 18.8359C23.1042 18.3828 23.0599 17.9062 23.0234 17.4062C22.9661 16.1302 22.8021 15.1042 22.5312 14.3281C22.2656 13.5521 21.9167 12.9635 21.4844 12.5625C21.0521 12.1615 20.5599 11.8854 20.0078 11.7344C19.8724 11.6979 19.7656 11.6458 19.6875 11.5781C19.6146 11.5104 19.5729 11.4062 19.5625 11.2656C19.5312 10.75 19.3776 10.3307 19.1016 10.0078C18.8255 9.6849 18.4583 9.52344 18 9.52344C17.5417 9.52344 17.1745 9.6849 16.8984 10.0078C16.6276 10.3307 16.474 10.75 16.4375 11.2656C16.4271 11.4062 16.3828 11.5104 16.3047 11.5781C16.2318 11.6458 16.1276 11.6979 15.9922 11.7344C15.4453 11.8854 14.9531 12.1615 14.5156 12.5625C14.0833 12.9635 13.7318 13.5521 13.4609 14.3281C13.1953 15.1042 13.0365 16.1302 12.9844 17.4062C12.9479 17.9062 12.901 18.3828 12.8438 18.8359C12.7917 19.2891 12.7214 19.7109 12.6328 20.1016C12.5443 20.487 12.4323 20.8385 12.2969 21.1562C12.1615 21.4688 11.9974 21.7344 11.8047 21.9531C11.6276 22.1458 11.4453 22.3411 11.2578 22.5391C11.0755 22.7318 10.9115 22.9115 10.7656 23.0781C10.6198 23.2396 10.5104 23.3776 10.4375 23.4922V23.6094ZM15.9062 25.2266C15.9427 25.8828 16.1536 26.4062 16.5391 26.7969C16.9297 27.1927 17.4167 27.3906 18 27.3906C18.5833 27.3906 19.0677 27.1927 19.4531 26.7969C19.8438 26.4062 20.0573 25.8828 20.0938 25.2266H15.9062Z" fill="#4875B0"/>
</g>
</svg>
