<svg width="36" height="36" viewBox="0 0 36 36" fill="none" xmlns="http://www.w3.org/2000/svg">
<g style="mix-blend-mode:plus-darker">
<path d="M7.9375 15.5156C7.9375 14.6146 8.08333 13.7891 8.375 13.0391C8.66667 12.2839 9.07292 11.6328 9.59375 11.0859C10.1146 10.5339 10.724 10.1094 11.4219 9.8125C12.1198 9.51562 12.875 9.36719 13.6875 9.36719C14.3177 9.36719 14.9036 9.46354 15.4453 9.65625C15.9922 9.84375 16.4792 10.1094 16.9062 10.4531C17.3385 10.7969 17.7005 11.1953 17.9922 11.6484C18.2891 11.1953 18.6536 10.7969 19.0859 10.4531C19.5182 10.1042 20.0052 9.83594 20.5469 9.64844C21.0885 9.46094 21.6745 9.36719 22.3047 9.36719C23.1172 9.36719 23.8724 9.51562 24.5703 9.8125C25.2682 10.1094 25.8776 10.5339 26.3984 11.0859C26.9245 11.6328 27.3307 12.2839 27.6172 13.0391C27.9089 13.7891 28.0547 14.6146 28.0547 15.5156C28.0547 16.5833 27.8359 17.6432 27.3984 18.6953C26.9661 19.7474 26.3438 20.7812 25.5312 21.7969C24.724 22.8125 23.7552 23.8047 22.625 24.7734C21.4948 25.7422 20.2344 26.6797 18.8438 27.5859C18.7031 27.6745 18.5547 27.7526 18.3984 27.8203C18.2474 27.8932 18.112 27.9297 17.9922 27.9297C17.8776 27.9297 17.7422 27.8932 17.5859 27.8203C17.4297 27.7526 17.2865 27.6745 17.1562 27.5859C15.7604 26.6797 14.4974 25.7422 13.3672 24.7734C12.237 23.8047 11.2656 22.8125 10.4531 21.7969C9.64583 20.7812 9.02344 19.7474 8.58594 18.6953C8.15365 17.6432 7.9375 16.5833 7.9375 15.5156ZM9.70312 15.5078C9.70312 16.4141 9.91927 17.3307 10.3516 18.2578C10.7839 19.1849 11.375 20.1016 12.125 21.0078C12.8802 21.9089 13.7448 22.7786 14.7188 23.6172C15.6979 24.4557 16.7318 25.2396 17.8203 25.9688C17.9089 26.0312 17.9661 26.0625 17.9922 26.0625C18.0182 26.0625 18.0781 26.0312 18.1719 25.9688C19.2604 25.2396 20.2917 24.4557 21.2656 23.6172C22.2448 22.7786 23.1094 21.9089 23.8594 21.0078C24.6146 20.1016 25.2057 19.1849 25.6328 18.2578C26.0651 17.3307 26.2812 16.4141 26.2812 15.5078C26.2812 14.6328 26.1042 13.8672 25.75 13.2109C25.401 12.5495 24.9193 12.0339 24.3047 11.6641C23.6901 11.2891 22.9948 11.1016 22.2188 11.1016C21.6094 11.1016 21.0807 11.2109 20.6328 11.4297C20.1901 11.6484 19.8073 11.9219 19.4844 12.25C19.1667 12.5781 18.8932 12.9141 18.6641 13.2578C18.5286 13.4401 18.4141 13.5703 18.3203 13.6484C18.2266 13.7214 18.1172 13.7578 17.9922 13.7578C17.8724 13.7578 17.763 13.7214 17.6641 13.6484C17.5651 13.5703 17.4557 13.4401 17.3359 13.2578C17.112 12.9089 16.8385 12.5703 16.5156 12.2422C16.1979 11.9141 15.8125 11.6432 15.3594 11.4297C14.9115 11.2109 14.3828 11.1016 13.7734 11.1016C12.9922 11.1016 12.2969 11.2891 11.6875 11.6641C11.0781 12.0339 10.5938 12.5495 10.2344 13.2109C9.88021 13.8672 9.70312 14.6328 9.70312 15.5078Z" fill="#4F772D"/>
</g>
</svg>
