<svg width="36" height="36" viewBox="0 0 36 36" fill="none" xmlns="http://www.w3.org/2000/svg">
<g style="mix-blend-mode:plus-darker">
<path d="M8.54688 23.7734C8.32292 23.7734 8.13281 23.6953 7.97656 23.5391C7.82552 23.3776 7.75 23.1875 7.75 22.9688C7.75 22.75 7.82552 22.5625 7.97656 22.4062C8.13281 22.25 8.32292 22.1719 8.54688 22.1719H27.4453C27.6693 22.1719 27.8594 22.25 28.0156 22.4062C28.1719 22.5625 28.25 22.75 28.25 22.9688C28.25 23.1927 28.1693 23.3828 28.0078 23.5391C27.8516 23.6953 27.6641 23.7734 27.4453 23.7734H8.54688ZM8.54688 19.1797C8.32292 19.1797 8.13281 19.1016 7.97656 18.9453C7.82552 18.7839 7.75 18.5938 7.75 18.375C7.75 18.1562 7.82552 17.9688 7.97656 17.8125C8.13281 17.6562 8.32292 17.5781 8.54688 17.5781H27.4453C27.6693 17.5781 27.8594 17.6562 28.0156 17.8125C28.1719 17.9688 28.25 18.1562 28.25 18.375C28.25 18.599 28.1693 18.7891 28.0078 18.9453C27.8516 19.1016 27.6641 19.1797 27.4453 19.1797H8.54688ZM8.54688 14.5859C8.32292 14.5859 8.13281 14.5078 7.97656 14.3516C7.82552 14.1901 7.75 14.0026 7.75 13.7891C7.75 13.5651 7.82552 13.375 7.97656 13.2188C8.13281 13.0625 8.32292 12.9844 8.54688 12.9844H27.4453C27.6693 12.9844 27.8594 13.0625 28.0156 13.2188C28.1719 13.375 28.25 13.5651 28.25 13.7891C28.25 14.0078 28.1693 14.1953 28.0078 14.3516C27.8516 14.5078 27.6641 14.5859 27.4453 14.5859H8.54688Z" fill="#4F772D"/>
</g>
</svg>
