<?xml version="1.0" encoding="UTF-8" standalone="no"?>
<!-- Created with Inkscape (http://www.inkscape.org/) -->

<svg
   width="83.52327mm"
   height="48.148308mm"
   viewBox="0 0 83.52327 48.148308"
   version="1.1"
   id="svg1"
   xml:space="preserve"
   xmlns="http://www.w3.org/2000/svg"
   xmlns:svg="http://www.w3.org/2000/svg"><defs
     id="defs1" /><g
     id="logo"
     transform="translate(-60.399566,-103.42828)"><g
       id="logo-ux"><path
         d="m 109.57853,151.50015 c -0.14605,0 -0.26458,-0.11827 -0.26458,-0.26459 v -6.13833 c 0,-0.14605 0.11853,-0.26458 0.26458,-0.26458 h 0.42333 c 0.14632,0 0.26459,0.11853 0.26459,0.26458 v 6.13833 c 0,0.14632 -0.11827,0.26459 -0.26459,0.26459 z"
         fill="#004488"
         id="path1"
         style="stroke-width:0.264583" /><path
         d="m 105.34123,151.57635 c -0.508,0 -0.99378,-0.0762 -1.45733,-0.2286 -0.38285,-0.13097 -0.69876,-0.29263 -0.9472,-0.48419 -0.0915,-0.0707 -0.11457,-0.19632 -0.0651,-0.30057 l 0.11933,-0.25162 c 0.0751,-0.15848 0.28204,-0.20134 0.42888,-0.1053 0.20003,0.1307 0.43101,0.24447 0.69268,0.34158 0.3937,0.14605 0.80328,0.21907 1.22873,0.21907 0.38735,0 0.70167,-0.0444 0.94297,-0.13335 0.2413,-0.0889 0.4191,-0.20955 0.5334,-0.36195 0.1143,-0.15875 0.17145,-0.33655 0.17145,-0.5334 0,-0.2286 -0.0762,-0.41275 -0.2286,-0.55245 -0.14605,-0.1397 -0.33972,-0.25082 -0.58102,-0.33337 -0.23495,-0.0889 -0.4953,-0.1651 -0.78105,-0.2286 -0.28575,-0.0635 -0.57468,-0.13653 -0.86678,-0.21908 -0.28575,-0.0889 -0.54927,-0.20002 -0.79057,-0.33337 -0.23495,-0.13335 -0.42545,-0.31115 -0.5715,-0.5334 -0.14605,-0.2286 -0.21908,-0.5207 -0.21908,-0.8763 0,-0.3429 0.0889,-0.65723 0.2667,-0.94298 0.18415,-0.2921 0.46355,-0.52387 0.8382,-0.69532 0.381,-0.1778 0.8636,-0.2667 1.4478,-0.2667 0.38735,0 0.77153,0.0508 1.15253,0.1524 0.30136,0.0804 0.57071,0.18864 0.80857,0.32464 0.10847,0.0619 0.1479,0.19632 0.10001,0.31221 l -0.10927,0.26538 c -0.0638,0.15425 -0.25242,0.21087 -0.40005,0.13282 -0.20188,-0.10663 -0.41117,-0.18812 -0.62786,-0.24448 -0.3175,-0.0889 -0.62548,-0.13335 -0.92393,-0.13335 -0.37465,0 -0.68262,0.0476 -0.92392,0.14288 -0.2413,0.0953 -0.4191,0.22225 -0.5334,0.381 -0.10795,0.15875 -0.16193,0.33655 -0.16193,0.5334 0,0.23495 0.073,0.42227 0.21908,0.56197 0.1524,0.1397 0.34607,0.25083 0.58102,0.33338 0.2413,0.0825 0.50483,0.15875 0.79058,0.2286 0.28575,0.0635 0.5715,0.13652 0.85725,0.21907 0.2921,0.0825 0.55562,0.1905 0.79057,0.32385 0.2413,0.13335 0.43498,0.31115 0.58103,0.5334 0.14605,0.22225 0.21907,0.508 0.21907,0.85725 0,0.33655 -0.0921,0.65088 -0.27622,0.94298 -0.18415,0.28575 -0.4699,0.51752 -0.85725,0.69532 -0.381,0.17145 -0.8636,0.25718 -1.4478,0.25718 z"
         fill="#004488"
         id="path2"
         style="stroke-width:0.264583" /><path
         d="m 101.72252,145.39674 c 0,0.14605 -0.11853,0.26458 -0.26458,0.26458 h -3.223684 c -0.146314,0 -0.264583,0.11853 -0.264583,0.26458 v 1.51871 c 0,0.14632 0.118269,0.26459 0.264583,0.26459 h 2.813844 c 0.14631,0 0.26458,0.11853 0.26458,0.26458 v 0.28072 c 0,0.14605 -0.11827,0.26459 -0.26458,0.26459 h -2.813844 c -0.146314,0 -0.264583,0.11853 -0.264583,0.26458 v 1.62348 c 0,0.14605 0.118269,0.26459 0.264583,0.26459 h 3.357034 c 0.14605,0 0.26458,0.11826 0.26458,0.26458 v 0.29924 c 0,0.14632 -0.11853,0.26459 -0.26458,0.26459 h -4.309534 c -0.14605,0 -0.264583,-0.11827 -0.264583,-0.26459 v -6.13833 c 0,-0.14605 0.118533,-0.26458 0.264583,-0.26458 h 4.176184 c 0.14605,0 0.26458,0.11853 0.26458,0.26458 z"
         fill="#004488"
         id="path3"
         style="stroke-width:0.264583" /><path
         d="m 91.95781,144.83265 c 0.7112,0 1.336675,0.1397 1.876425,0.4191 0.5461,0.2794 0.968375,0.66992 1.266825,1.17157 0.3048,0.50165 0.456936,1.08294 0.456936,1.74334 0,0.6604 -0.152136,1.24143 -0.456936,1.74308 -0.29845,0.50165 -0.720725,0.89217 -1.266825,1.17131 -0.53975,0.2794 -1.165225,0.4191 -1.876425,0.4191 h -2.545291 c -0.146315,0 -0.264584,-0.11827 -0.264584,-0.26459 v -0.29924 c 0,-0.14632 0.118269,-0.26458 0.264584,-0.26458 h 2.487877 c 0.55245,0 1.0287,-0.10504 1.42875,-0.31459 0.4064,-0.20955 0.720989,-0.50139 0.943239,-0.87604 0.22225,-0.381 0.333375,-0.81915 0.333375,-1.31445 0,-0.50165 -0.111125,-0.94006 -0.333375,-1.31471 -0.22225,-0.37465 -0.536839,-0.66649 -0.943239,-0.87604 -0.40005,-0.20955 -0.8763,-0.31459 -1.42875,-0.31459 h -2.487877 c -0.146315,0 -0.264584,-0.11853 -0.264584,-0.26458 v -0.29951 c 0,-0.14605 0.118269,-0.26458 0.264584,-0.26458 z"
         fill="#004488"
         id="path4"
         style="stroke-width:0.264583" /><path
         d="m 75.501759,151.57635 c -0.8763,0 -1.565275,-0.25083 -2.066925,-0.75248 -0.50165,-0.50165 -0.752475,-1.23507 -0.752475,-2.20027 v -3.52637 c 0,-0.14605 0.118454,-0.26458 0.264583,-0.26458 h 0.423334 c 0.146103,0 0.264583,0.11853 0.264583,0.26458 v 3.48827 c 0,0.74295 0.161925,1.28587 0.485775,1.62877 0.3302,0.3429 0.79375,0.51435 1.39065,0.51435 0.60325,0 1.0668,-0.17145 1.39065,-0.51435 0.3302,-0.3429 0.4953,-0.88582 0.4953,-1.62877 v -3.48827 c 0,-0.14605 0.118454,-0.26458 0.264583,-0.26458 h 0.394759 c 0.146103,0 0.264583,0.11853 0.264583,0.26458 v 3.52637 c 0,0.9652 -0.250825,1.69862 -0.752475,2.20027 -0.4953,0.50165 -1.184275,0.75248 -2.066925,0.75248 z"
         fill="#004488"
         id="path5"
         style="stroke-width:0.264583" /><path
         fill-rule="evenodd"
         clip-rule="evenodd"
         d="m 82.192833,147.09589 c 0.105913,0.14526 0.322766,0.14473 0.428149,-7.9e-4 l 1.557523,-2.15292 c 0.04974,-0.0688 0.129487,-0.10953 0.214365,-0.10953 h 0.38227 c 0.216456,0 0.341339,0.24579 0.213704,0.42068 l -1.928945,2.64213 c -0.06789,0.0931 -0.06786,0.21934 1.06e-4,0.31221 l 2.099601,2.87179 c 0.127794,0.17489 0.003,0.42069 -0.213598,0.42069 h -0.439367 c -0.08464,0 -0.164174,-0.0405 -0.213968,-0.10875 l -1.704446,-2.34368 c -0.106072,-0.14578 -0.323797,-0.14499 -0.428943,0.001 l -1.680051,2.34103 c -0.04969,0.0691 -0.129699,0.11007 -0.214948,0.11007 h -0.437753 c -0.216693,0 -0.341524,-0.24607 -0.213413,-0.42096 l 2.082245,-2.84056 c 0.06789,-0.0926 0.06829,-0.21855 9.52e-4,-0.31168 l -1.935612,-2.67441 c -0.126603,-0.17515 -0.0016,-0.41989 0.214339,-0.41989 h 0.433361 c 0.08456,0 0.164015,0.0405 0.21381,0.10874 z"
         fill="#004488"
         id="path6"
         style="stroke-width:0.264583" /><path
         fill-rule="evenodd"
         clip-rule="evenodd"
         d="m 115.29168,144.75645 c 0.52705,0 1.00965,0.086 1.4478,0.25744 0.35824,0.14022 0.67178,0.3376 0.94086,0.5924 0.1016,0.0963 0.096,0.25638 -0.003,0.3556 l -0.2294,0.22913 c -0.10239,0.10239 -0.26749,0.10213 -0.37967,0.0103 -0.21855,-0.17833 -0.45191,-0.31406 -0.70036,-0.40667 -0.3175,-0.127 -0.66357,-0.1905 -1.03822,-0.1905 -0.381,0 -0.7366,0.0635 -1.0668,0.1905 -0.32385,0.127 -0.60669,0.30507 -0.84799,0.53367 -0.23469,0.2286 -0.41884,0.50138 -0.55219,0.81888 -0.127,0.31115 -0.1905,0.65114 -0.1905,1.01944 0,0.36195 0.0635,0.70168 0.1905,1.01891 0.13335,0.31115 0.3175,0.5842 0.55219,0.81915 0.2413,0.2286 0.52414,0.40667 0.84799,0.53367 0.32385,0.127 0.67627,0.19023 1.05727,0.19023 0.3556,0 0.69533,-0.054 1.01918,-0.16192 0.14578,-0.0503 0.28601,-0.11536 0.42174,-0.19421 0.077,-0.045 0.12118,-0.12885 0.12118,-0.21775 v -1.76186 c 0,-0.14605 0.11854,-0.26458 0.26459,-0.26458 h 0.38523 c 0.14605,0 0.26458,0.11853 0.26458,0.26458 v 2.25478 c 0,0.0513 -0.023,0.10001 -0.0624,0.13282 -0.31644,0.254 -0.68289,0.44953 -1.09987,0.58658 -0.43789,0.13944 -0.89191,0.20955 -1.36181,0.20955 -0.51435,0 -0.98743,-0.0828 -1.41923,-0.24791 -0.4318,-0.17145 -0.80645,-0.40931 -1.12395,-0.71411 -0.3175,-0.31115 -0.56515,-0.67337 -0.74295,-1.08612 -0.1778,-0.41275 -0.26696,-0.86651 -0.26696,-1.36181 0,-0.4953 0.0892,-0.94959 0.26696,-1.36234 0.1778,-0.41275 0.42545,-0.77152 0.74295,-1.07632 0.32385,-0.31115 0.70168,-0.54901 1.13348,-0.71411 0.4318,-0.17145 0.90805,-0.25744 1.42875,-0.25744 z"
         fill="#004488"
         id="path7"
         style="stroke-width:0.264583" /><path
         d="m 123.93112,149.216 c 0.15663,0.19447 0.47069,0.0839 0.47069,-0.1659 v -3.95287 c 0,-0.14605 0.11854,-0.26458 0.26459,-0.26458 h 0.42333 c 0.14631,0 0.26458,0.11853 0.26458,0.26458 v 6.13833 c 0,0.14632 -0.11827,0.26459 -0.26458,0.26459 H 124.7 c -0.0802,0 -0.15584,-0.0362 -0.20611,-0.0984 l -3.45043,-4.28546 c -0.15664,-0.19446 -0.4707,-0.0836 -0.4707,0.16616 v 3.95314 c 0,0.14632 -0.11853,0.26459 -0.26458,0.26459 h -0.42307 c -0.14631,0 -0.26458,-0.11827 -0.26458,-0.26459 v -6.13833 c 0,-0.14605 0.11827,-0.26458 0.26458,-0.26458 h 0.38973 c 0.0802,0 0.15584,0.0362 0.20611,0.0987 z"
         fill="#004488"
         id="path8"
         style="stroke-width:0.264583" /></g><g
       id="logo-studio"><path
         d="m 130.65497,140.5972 c -1.07024,0 -2.05581,-0.17622 -2.95645,-0.52864 -0.90064,-0.35243 -1.68381,-0.84191 -2.3495,-1.46844 -0.66569,-0.6395 -1.18136,-1.38351 -1.54675,-2.23202 -0.36539,-0.86149 -0.54822,-1.80129 -0.54822,-2.8194 0,-1.01812 0.18283,-1.95131 0.54822,-2.79982 0.36539,-0.86149 0.88106,-1.60544 1.54675,-2.23198 0.66569,-0.63957 1.44886,-1.13559 2.3495,-1.48801 0.90064,-0.35243 1.8796,-0.52864 2.93688,-0.52864 1.07023,0 2.04919,0.17621 2.93687,0.52864 0.90064,0.35242 1.68381,0.84844 2.3495,1.48801 0.66569,0.62654 1.18136,1.37049 1.54675,2.23198 0.36539,0.84851 0.54822,1.7817 0.54822,2.79982 0,1.01811 -0.18283,1.95791 -0.54822,2.8194 -0.36539,0.86148 -0.88106,1.60549 -1.54675,2.23202 -0.66569,0.62653 -1.44886,1.11601 -2.3495,1.46844 -0.88768,0.35242 -1.86002,0.52864 -2.9173,0.52864 z m -0.0196,-2.23203 c 0.69188,0 1.33138,-0.11747 1.91875,-0.35242 0.58738,-0.23495 1.09644,-0.5678 1.52718,-0.99854 0.43074,-0.44371 0.76359,-0.95277 0.99854,-1.52718 0.24791,-0.58737 0.372,-1.23348 0.372,-1.93833 0,-0.70485 -0.12409,-1.34435 -0.372,-1.91876 -0.23495,-0.58738 -0.5678,-1.09644 -0.99854,-1.52718 -0.43074,-0.44373 -0.9398,-0.78311 -1.52718,-1.01806 -0.58737,-0.23495 -1.22687,-0.35243 -1.91875,-0.35243 -0.69189,0 -1.33139,0.11748 -1.91876,0.35243 -0.57441,0.23495 -1.08347,0.57433 -1.52718,1.01806 -0.43074,0.43074 -0.7702,0.9398 -1.01811,1.52718 -0.23495,0.57441 -0.35243,1.21391 -0.35243,1.91876 0,0.69188 0.11748,1.33138 0.35243,1.91875 0.24791,0.58738 0.58737,1.10305 1.01811,1.54676 0.43074,0.43074 0.9398,0.76359 1.52718,0.99854 0.58737,0.23495 1.22687,0.35242 1.91876,0.35242 z"
         fill="#0077dd"
         id="path9"
         style="stroke-width:0.264583" /><path
         d="m 118.49155,140.4014 c -0.29236,0 -0.52917,-0.2368 -0.52917,-0.52916 v -12.64703 c 0,-0.29226 0.23681,-0.52917 0.52917,-0.52917 h 1.48696 c 0.29236,0 0.52916,0.23691 0.52916,0.52917 v 12.64703 c 0,0.29236 -0.2368,0.52916 -0.52916,0.52916 z"
         fill="#0077dd"
         id="path10"
         style="stroke-width:0.264583" /><path
         d="m 107.81402,126.69609 c 1.48802,0 2.79348,0.28713 3.91584,0.86143 1.12263,0.57434 1.99707,1.37065 2.62361,2.38887 0.62653,1.01786 0.9398,2.2188 0.9398,3.60231 0,1.37054 -0.31327,2.57148 -0.9398,3.60256 -0.62654,1.01812 -1.50098,1.81452 -2.62361,2.38866 -1.12236,0.57441 -2.42782,0.86148 -3.91584,0.86148 h -5.46205 c -0.29237,0 -0.52917,-0.2368 -0.52917,-0.52916 v -1.09511 c 0,-0.29237 0.2368,-0.52917 0.52917,-0.52917 h 5.34458 c 1.03108,-2.6e-4 1.91876,-0.19606 2.66277,-0.58764 0.75697,-0.39158 1.33773,-0.9398 1.74254,-1.64465 0.41751,-0.70485 0.62654,-1.52717 0.62654,-2.46697 0,-0.95277 -0.20903,-1.77509 -0.62654,-2.46671 -0.40481,-0.70485 -0.98557,-1.25341 -1.74254,-1.645 -0.74401,-0.39153 -1.63169,-0.58729 -2.66277,-0.58729 h -5.34458 c -0.29237,0 -0.52917,-0.23691 -0.52917,-0.52917 v -1.09527 c 0,-0.29226 0.2368,-0.52917 0.52917,-0.52917 z"
         fill="#0077dd"
         id="path11"
         style="stroke-width:0.264583" /><path
         d="m 93.016937,140.5972 c -1.8796,0 -3.354652,-0.52864 -4.424891,-1.58592 -1.057275,-1.05727 -1.585913,-2.58445 -1.585913,-4.58152 v -7.20455 c 0,-0.29226 0.236802,-0.52917 0.529167,-0.52917 h 1.486958 c 0.292365,0 0.529167,0.23691 0.529167,0.52917 v 7.10665 c 0,1.4097 0.300302,2.43443 0.900642,3.07393 0.613568,0.63976 1.475052,0.95938 2.58445,0.95938 1.109397,0 1.964531,-0.31962 2.56487,-0.95938 0.60034,-0.6395 0.900642,-1.66423 0.900642,-3.07393 v -7.10665 c 0,-0.29226 0.236802,-0.52917 0.529167,-0.52917 h 1.4478 c 0.292364,0 0.529166,0.23691 0.529166,0.52917 v 7.20455 c 0,1.99707 -0.535252,3.52425 -1.605491,4.58152 -1.057275,1.05728 -2.519098,1.58592 -4.385734,1.58592 z"
         fill="#0077dd"
         id="path12"
         style="stroke-width:0.264583" /><path
         d="m 77.790167,140.4014 c -0.292259,0 -0.529167,-0.2368 -0.529167,-0.52916 v -10.49332 c 0,-0.29226 -0.236908,-0.52917 -0.529167,-0.52917 H 73.2478 c -0.292259,0 -0.529166,-0.23691 -0.529166,-0.52917 v -1.09537 c 0,-0.29226 0.236907,-0.52917 0.529166,-0.52917 h 10.571692 c 0.292258,0 0.529166,0.23691 0.529166,0.52917 v 1.09537 c 0,0.29226 -0.236908,0.52917 -0.529166,0.52917 h -3.484034 c -0.292258,0 -0.529166,0.23691 -0.529166,0.52917 v 10.49332 c 0,0.29236 -0.236908,0.52916 -0.529167,0.52916 z"
         fill="#0077dd"
         id="path13"
         style="stroke-width:0.264583" /><path
         d="m 65.687067,140.5972 c -1.070319,0 -2.094971,-0.15002 -3.073929,-0.45032 -0.809855,-0.25903 -1.481251,-0.57627 -2.014188,-0.95171 -0.192893,-0.13573 -0.249597,-0.39106 -0.153583,-0.60643 l 0.44256,-0.99351 c 0.140269,-0.31459 0.540221,-0.41354 0.834301,-0.23389 0.431612,0.26379 0.924374,0.49398 1.478285,0.69056 0.809281,0.28734 1.638115,0.43075 2.486554,0.43075 0.717894,0 1.29876,-0.0783 1.742546,-0.23495 0.443785,-0.15664 0.770122,-0.36539 0.978958,-0.62654 0.208836,-0.27411 0.313267,-0.58076 0.313267,-0.92022 0,-0.41751 -0.150098,-0.75036 -0.450321,-0.99854 -0.300223,-0.26087 -0.691806,-0.46328 -1.17475,-0.60695 -0.4699,-0.15663 -0.998538,-0.30004 -1.585913,-0.43074 -0.574331,-0.13044 -1.15517,-0.28046 -1.742545,-0.45032 -0.574331,-0.18256 -1.102961,-0.41116 -1.585913,-0.68527 -0.4699,-0.28708 -0.854956,-0.66569 -1.155171,-1.13559 -0.300214,-0.4699 -0.450321,-1.07024 -0.450321,-1.80129 0,-0.74395 0.195792,-1.42269 0.587375,-2.03618 0.404636,-0.62653 1.01159,-1.12255 1.820863,-1.48801 0.822325,-0.37854 1.860021,-0.5678 3.113087,-0.5678 0.822325,0 1.638115,0.10443 2.447396,0.31327 0.647039,0.16697 1.227323,0.39235 1.740853,0.67614 0.221668,0.1225 0.304932,0.39388 0.209682,0.62854 l -0.406956,1.00251 c -0.12192,0.3003 -0.482256,0.41992 -0.772874,0.27646 -0.44286,-0.2186 -0.895562,-0.38801 -1.35808,-0.50826 -0.652647,-0.18275 -1.279181,-0.27411 -1.8796,-0.27411 -0.70485,0 -1.279181,0.0848 -1.722966,0.25453 -0.430742,0.16968 -0.750544,0.39158 -0.95938,0.66569 -0.195791,0.27411 -0.293687,0.58732 -0.293687,0.93975 0,0.41777 0.143589,0.75723 0.430742,1.01811 0.300222,0.24818 0.68527,0.44397 1.15517,0.58738 0.482944,0.14367 1.018117,0.28734 1.605492,0.43074 0.587375,0.1307 1.168215,0.28072 1.742546,0.45032 0.587375,0.16986 1.116012,0.39158 1.585912,0.66569 0.482944,0.27411 0.868019,0.64612 1.155171,1.11602 0.300223,0.4699 0.450321,1.06389 0.450321,1.7817 0,0.73104 -0.202327,1.4097 -0.606954,2.03623 -0.391583,0.61357 -0.998538,1.10967 -1.820863,1.48802 -0.822325,0.36565 -1.86002,0.54822 -3.113087,0.54822 z"
         fill="#0077dd"
         id="path14"
         style="stroke-width:0.264583" /><path
         d="m 137.82254,122.40834 c 0.0852,-0.23035 0.41116,-0.23035 0.49636,0 l 0.71014,1.91902 c 0.0267,0.0724 0.0839,0.12951 0.15637,0.15631 l 1.91875,0.71009 c 0.23046,0.0853 0.23046,0.41106 0,0.49628 l -1.91875,0.71012 c -0.0725,0.0268 -0.12965,0.0839 -0.15637,0.15631 l -0.71014,1.91903 c -0.0852,0.23034 -0.41117,0.23034 -0.49636,0 l -0.71014,-1.91903 c -0.0267,-0.0724 -0.0839,-0.12951 -0.15637,-0.15631 l -1.91876,-0.71012 c -0.23045,-0.0852 -0.23045,-0.41103 0,-0.49628 l 1.91876,-0.71009 c 0.0725,-0.0268 0.12964,-0.0839 0.15637,-0.15631 z"
         fill="#0077dd"
         id="path15"
         style="stroke-width:0.264583" /><path
         d="m 141.5267,119.7625 c 0.0852,-0.23034 0.41117,-0.23034 0.49636,0 l 0.42413,1.14652 c 0.027,0.0724 0.0839,0.12954 0.15637,0.15634 l 1.14644,0.42424 c 0.23045,0.0853 0.23045,0.41105 0,0.49628 l -1.14644,0.42425 c -0.0725,0.0268 -0.12938,0.0839 -0.15637,0.15632 l -0.42413,1.14655 c -0.0852,0.23034 -0.41116,0.23034 -0.49636,0 l -0.42412,-1.14655 c -0.027,-0.0724 -0.0839,-0.12951 -0.15637,-0.15632 l -1.14644,-0.42425 c -0.23045,-0.0852 -0.23045,-0.41103 0,-0.49628 l 1.14644,-0.42424 c 0.0725,-0.0268 0.12938,-0.0839 0.15637,-0.15634 z"
         fill="#0077dd"
         id="path16"
         style="stroke-width:0.264583" /></g><g
       id="logo-dgpp"><path
         d="m 110.63342,103.74608 c 1.65788,0 3.0869,0.27333 4.28625,0.82011 1.19936,0.52915 2.1254,1.29654 2.77813,2.30192 0.65273,1.00542 0.97896,2.20501 0.97896,3.5985 0,1.37578 -0.32623,2.56648 -0.97896,3.57187 -0.65273,1.00536 -1.57877,1.78149 -2.77813,2.32828 -1.19935,0.52914 -2.62837,0.79375 -4.28625,0.79375 h -2.93687 c -0.43841,0 -0.79375,0.35536 -0.79375,0.79375 v 3.51891 c 0,0.43836 -0.35534,0.79375 -0.79375,0.79375 h -2.69875 c -0.43841,0 -0.79375,-0.35539 -0.79375,-0.79375 v -7.01146 c 0,-0.43839 0.35534,-0.79375 0.79375,-0.79375 h 6.985 c 1.32292,0 2.31087,-0.28229 2.9636,-0.84672 0.65246,-0.56441 0.97869,-1.34932 0.97869,-2.35463 0,-1.02302 -0.32623,-1.81682 -0.97869,-2.38125 -0.65273,-0.56444 -1.64068,-0.84672 -2.9636,-0.84672 h -6.985 c -0.43841,0 -0.79375,-0.35539 -0.79375,-0.79375 v -1.90506 c 0,-0.43837 0.35534,-0.79375 0.79375,-0.79375 z"
         fill="#004488"
         id="path17"
         style="stroke-width:0.264583" /><path
         d="m 129.94801,103.74608 c 1.65788,0 3.08689,0.27333 4.28625,0.82011 1.19935,0.52915 2.1254,1.29654 2.77812,2.30192 0.65273,1.00542 0.97896,2.20501 0.97896,3.5985 0,1.37578 -0.32623,2.56648 -0.97896,3.57187 -0.65272,1.00536 -1.57877,1.78149 -2.77812,2.32828 -1.19936,0.52914 -2.62837,0.79375 -4.28625,0.79375 h -2.93688 c -0.43841,0 -0.79375,0.35536 -0.79375,0.79375 v 3.51891 c 0,0.43836 -0.35533,0.79375 -0.79375,0.79375 h -2.69875 c -0.43841,0 -0.79375,-0.35539 -0.79375,-0.79375 v -7.01146 c 0,-0.43839 0.35534,-0.79375 0.79375,-0.79375 h 6.985 c 1.32292,0 2.31087,-0.28229 2.9636,-0.84672 0.65246,-0.56441 0.97869,-1.34932 0.97869,-2.35463 0,-1.02302 -0.32623,-1.81682 -0.97869,-2.38125 -0.65273,-0.56444 -1.64068,-0.84672 -2.9636,-0.84672 h -6.985 c -0.43841,0 -0.79375,-0.35539 -0.79375,-0.79375 v -1.90506 c 0,-0.43837 0.35534,-0.79375 0.79375,-0.79375 z"
         fill="#004488"
         id="path18"
         style="stroke-width:0.264583" /><path
         d="m 68.961497,103.74608 c 2.010834,0 3.783701,0.38816 5.318284,1.16427 1.53453,0.75847 2.73394,1.82555 3.598227,3.20136 0.864315,1.37583 1.296565,3.00744 1.296565,4.89479 0,1.86973 -0.43225,3.50131 -1.296565,4.89479 -0.864314,1.37581 -2.06367,2.45187 -3.598227,3.22797 -1.534583,0.75848 -3.30745,1.13766 -5.318284,1.13766 H 61.34155 c -0.438375,0 -0.79375,-0.35539 -0.79375,-0.79375 v -1.93141 c 0,-0.43839 0.355375,-0.79375 0.79375,-0.79375 h 7.408334 c 1.234731,0 2.302033,-0.22947 3.201617,-0.68807 0.917151,-0.47625 1.622795,-1.14647 2.116666,-2.01073 0.511519,-0.86429 0.767133,-1.87857 0.767133,-3.04271 0,-1.18179 -0.25564,-2.19604 -0.767133,-3.04271 -0.493871,-0.86429 -1.199488,-1.52577 -2.116666,-1.98437 -0.899584,-0.47625 -1.966886,-0.71443 -3.201617,-0.71443 H 61.34155 c -0.438375,0 -0.79375,-0.35536 -0.79375,-0.79375 v -1.93141 c 0,-0.43837 0.355375,-0.79375 0.79375,-0.79375 z"
         fill="#004488"
         id="path19"
         style="stroke-width:0.264583" /><path
         d="m 91.371758,103.42853 c 1.640417,0 3.113352,0.27356 4.418542,0.82036 1.075267,0.44447 2.010833,1.0521 2.806435,1.82288 0.307446,0.29803 0.277548,0.78896 -0.03731,1.07947 l -1.612106,1.48807 c -0.318823,0.29433 -0.811742,0.27371 -1.141148,-0.009 -0.510911,-0.438 -1.0541,-0.77857 -1.629833,-1.02167 -0.79375,-0.35274 -1.658144,-0.52916 -2.592917,-0.52916 -0.899583,0 -1.719792,0.14126 -2.460625,0.42349 -0.740833,0.2822 -1.384565,0.68784 -1.931458,1.21698 -0.529114,0.52916 -0.94369,1.15551 -1.243542,1.8787 -0.282205,0.72316 -0.423227,1.52569 -0.423227,2.4076 0,0.86431 0.140996,1.65806 0.423227,2.38125 0.299852,0.72319 0.714428,1.35824 1.243542,1.90505 0.546893,0.52914 1.181893,0.93478 1.905,1.21698 0.740833,0.2822 1.55231,0.42347 2.434166,0.42349 0.846667,0 1.666875,-0.13229 2.460625,-0.39687 0.148167,-0.0515 0.295275,-0.10925 0.441325,-0.1732 0.27014,-0.11808 0.4318,-0.39248 0.4318,-0.68725 v -4.16664 c 0,-0.43838 0.355336,-0.79375 0.79375,-0.79375 h 2.328334 c 0.438414,0 0.79375,0.35537 0.79375,0.79375 v 6.32476 c 0,0.24908 -0.115623,0.48535 -0.320411,0.6273 -0.931862,0.64633 -1.997869,1.15126 -3.198548,1.51461 -1.322916,0.40569 -2.645833,0.60849 -3.96875,0.60849 -1.463939,0 -2.813314,-0.22947 -4.048125,-0.68808 -1.216977,-0.47625 -2.28428,-1.14641 -3.201511,-2.01072 -0.899583,-0.86432 -1.605148,-1.87855 -2.116667,-3.04271 -0.493871,-1.16417 -0.74078,-2.44301 -0.74078,-3.83646 0,-1.39346 0.246909,-2.67229 0.74078,-3.83646 0.511519,-1.16417 1.226053,-2.17839 2.143284,-3.04271 0.917178,-0.86426 1.993054,-1.52577 3.227811,-1.98437 1.234546,-0.47625 2.592917,-0.71443 4.074583,-0.71443 z"
         fill="#004488"
         id="path20"
         style="stroke-width:0.264583" /></g></g></svg>
