<svg width="318" height="182" viewBox="0 0 318 182" fill="none" xmlns="http://www.w3.org/2000/svg">
<path d="M265.972 140.48C261.927 140.48 258.202 139.814 254.798 138.482C251.394 137.15 248.434 135.3 245.918 132.932C243.402 130.515 241.453 127.703 240.072 124.496C238.691 121.24 238 117.688 238 113.84C238 109.992 238.691 106.465 240.072 103.258C241.453 100.002 243.402 97.1902 245.918 94.8222C248.434 92.4049 251.394 90.5302 254.798 89.1982C258.202 87.8662 261.902 87.2002 265.898 87.2002C269.943 87.2002 273.643 87.8662 276.998 89.1982C280.402 90.5302 283.362 92.4049 285.878 94.8222C288.394 97.1902 290.343 100.002 291.724 103.258C293.105 106.465 293.796 109.992 293.796 113.84C293.796 117.688 293.105 121.24 291.724 124.496C290.343 127.752 288.394 130.564 285.878 132.932C283.362 135.3 280.402 137.15 276.998 138.482C273.643 139.814 269.968 140.48 265.972 140.48ZM265.898 132.044C268.513 132.044 270.93 131.6 273.15 130.712C275.37 129.824 277.294 128.566 278.922 126.938C280.55 125.261 281.808 123.337 282.696 121.166C283.633 118.946 284.102 116.504 284.102 113.84C284.102 111.176 283.633 108.759 282.696 106.588C281.808 104.368 280.55 102.444 278.922 100.816C277.294 99.1389 275.37 97.8562 273.15 96.9682C270.93 96.0802 268.513 95.6362 265.898 95.6362C263.283 95.6362 260.866 96.0802 258.646 96.9682C256.475 97.8562 254.551 99.1389 252.874 100.816C251.246 102.444 249.963 104.368 249.026 106.588C248.138 108.759 247.694 111.176 247.694 113.84C247.694 116.455 248.138 118.872 249.026 121.092C249.963 123.312 251.246 125.261 252.874 126.938C254.502 128.566 256.426 129.824 258.646 130.712C260.866 131.6 263.283 132.044 265.898 132.044Z" fill="#0077DD"/>
<path d="M220 139.74C218.895 139.74 218 138.845 218 137.74V89.9402C218 88.8356 218.895 87.9402 220 87.9402H225.62C226.725 87.9402 227.62 88.8356 227.62 89.9402V137.74C227.62 138.845 226.725 139.74 225.62 139.74H220Z" fill="#0077DD"/>
<path d="M179.644 87.9404C185.268 87.9404 190.202 89.0256 194.444 91.1962C198.687 93.3669 201.992 96.3766 204.36 100.225C206.728 104.072 207.912 108.611 207.912 113.84C207.912 119.02 206.728 123.559 204.36 127.456C201.992 131.304 198.687 134.314 194.444 136.484C190.202 138.655 185.268 139.74 179.644 139.74H159C157.895 139.74 157 138.845 157 137.74V133.601C157 132.496 157.895 131.601 159 131.601H179.2C183.097 131.6 186.452 130.86 189.264 129.38C192.125 127.9 194.32 125.828 195.85 123.164C197.428 120.5 198.218 117.392 198.218 113.84C198.218 110.239 197.428 107.131 195.85 104.517C194.32 101.853 192.125 99.7797 189.264 98.2997C186.452 96.8199 183.097 96.08 179.2 96.08H159C157.895 96.08 157 95.1846 157 94.08V89.9404C157 88.8358 157.895 87.9404 159 87.9404H179.644Z" fill="#0077DD"/>
<path d="M123.718 140.48C116.614 140.48 111.039 138.482 106.994 134.486C102.998 130.49 101 124.718 101 117.17V89.9402C101 88.8356 101.895 87.9402 103 87.9402H108.62C109.725 87.9402 110.62 88.8356 110.62 89.9402V116.8C110.62 122.128 111.755 126.001 114.024 128.418C116.343 130.836 119.599 132.044 123.792 132.044C127.985 132.044 131.217 130.836 133.486 128.418C135.755 126.001 136.89 122.128 136.89 116.8V89.9402C136.89 88.8356 137.785 87.9402 138.89 87.9402H144.362C145.467 87.9402 146.362 88.8356 146.362 89.9402V117.17C146.362 124.718 144.339 130.49 140.294 134.486C136.298 138.482 130.773 140.48 123.718 140.48Z" fill="#0077DD"/>
<path d="M66.168 139.74C65.0634 139.74 64.168 138.845 64.168 137.74V98.0802C64.168 96.9756 63.2726 96.0802 62.168 96.0802H49C47.8954 96.0802 47 95.1848 47 94.0802V89.9402C47 88.8356 47.8954 87.9402 49 87.9402H88.956C90.0606 87.9402 90.956 88.8356 90.956 89.9402V94.0802C90.956 95.1848 90.0606 96.0802 88.956 96.0802H75.788C74.6834 96.0802 73.788 96.9756 73.788 98.0802V137.74C73.788 138.845 72.8926 139.74 71.788 139.74H66.168Z" fill="#0077DD"/>
<path d="M20.424 140.48C16.3787 140.48 12.506 139.913 8.806 138.778C5.74513 137.799 3.20757 136.6 1.19332 135.181C0.464277 134.668 0.249964 133.703 0.612851 132.889L2.28552 129.134C2.81567 127.945 4.3273 127.571 5.43878 128.25C7.07007 129.247 8.93248 130.117 11.026 130.86C14.0847 131.946 17.2173 132.488 20.424 132.488C23.1373 132.488 25.3327 132.192 27.01 131.6C28.6873 131.008 29.9207 130.219 30.71 129.232C31.4993 128.196 31.894 127.037 31.894 125.754C31.894 124.176 31.3267 122.918 30.192 121.98C29.0573 120.994 27.5773 120.229 25.752 119.686C23.976 119.094 21.978 118.552 19.758 118.058C17.5873 117.565 15.392 116.998 13.172 116.356C11.0013 115.666 9.00333 114.802 7.178 113.766C5.402 112.681 3.94667 111.25 2.812 109.474C1.67733 107.698 1.11 105.429 1.11 102.666C1.11 99.8542 1.85 97.2889 3.33 94.9702C4.85933 92.6022 7.15333 90.7275 10.212 89.3462C13.32 87.9155 17.242 87.2002 21.978 87.2002C25.086 87.2002 28.1693 87.5949 31.228 88.3842C33.6735 89.0153 35.8667 89.8671 37.8076 90.9397C38.6454 91.4027 38.9601 92.4284 38.6001 93.3153L37.062 97.1043C36.6012 98.2393 35.2393 98.6914 34.1409 98.1492C32.4671 97.323 30.7561 96.6827 29.008 96.2282C26.5413 95.5375 24.1733 95.1922 21.904 95.1922C19.24 95.1922 17.0693 95.5129 15.392 96.1542C13.764 96.7955 12.5553 97.6342 11.766 98.6702C11.026 99.7062 10.656 100.89 10.656 102.222C10.656 103.801 11.1987 105.084 12.284 106.07C13.4187 107.008 14.874 107.748 16.65 108.29C18.4753 108.833 20.498 109.376 22.718 109.918C24.938 110.412 27.1333 110.979 29.304 111.62C31.524 112.262 33.522 113.1 35.298 114.136C37.1233 115.172 38.5787 116.578 39.664 118.354C40.7987 120.13 41.366 122.375 41.366 125.088C41.366 127.851 40.6013 130.416 39.072 132.784C37.592 135.103 35.298 136.978 32.19 138.408C29.082 139.79 25.16 140.48 20.424 140.48Z" fill="#0077DD"/>
<path d="M190.3 1.2002C196.566 1.2002 201.967 2.23323 206.5 4.2998C211.033 6.29976 214.533 9.20011 217 13C219.467 16.8 220.7 21.3339 220.7 26.6006C220.7 31.8004 219.467 36.3007 217 40.1006C214.533 43.9004 211.033 46.8338 206.5 48.9004C201.967 50.9003 196.566 51.9004 190.3 51.9004H179.2C177.543 51.9004 176.2 53.2435 176.2 54.9004V68.2002C176.2 69.857 174.857 71.2002 173.2 71.2002H163C161.343 71.2002 160 69.857 160 68.2002V41.7002C160 40.0433 161.343 38.7002 163 38.7002H189.4C194.4 38.7002 198.134 37.6333 200.601 35.5C203.067 33.3668 204.3 30.4002 204.3 26.6006C204.3 22.7341 203.067 19.7339 200.601 17.6006C198.134 15.4673 194.4 14.4004 189.4 14.4004H163C161.343 14.4004 160 13.0572 160 11.4004V4.2002C160 2.54334 161.343 1.2002 163 1.2002H190.3Z" fill="#004488"/>
<path d="M263.3 1.2002C269.566 1.2002 274.967 2.23323 279.5 4.2998C284.033 6.29976 287.533 9.20011 290 13C292.467 16.8 293.7 21.3339 293.7 26.6006C293.7 31.8004 292.467 36.3007 290 40.1006C287.533 43.9004 284.033 46.8338 279.5 48.9004C274.967 50.9003 269.566 51.9004 263.3 51.9004H252.2C250.543 51.9004 249.2 53.2435 249.2 54.9004V68.2002C249.2 69.857 247.857 71.2002 246.2 71.2002H236C234.343 71.2002 233 69.857 233 68.2002V41.7002C233 40.0433 234.343 38.7002 236 38.7002H262.4C267.4 38.7002 271.134 37.6333 273.601 35.5C276.067 33.3668 277.3 30.4002 277.3 26.6006C277.3 22.7341 276.067 19.7339 273.601 17.6006C271.134 15.4673 267.4 14.4004 262.4 14.4004H236C234.343 14.4004 233 13.0572 233 11.4004V4.2002C233 2.54334 234.343 1.2002 236 1.2002H263.3Z" fill="#004488"/>
<path d="M32.7998 1.2002C40.3998 1.2002 47.1004 2.66725 52.9004 5.60059C58.7002 8.46723 63.2334 12.5003 66.5 17.7002C69.7667 22.9002 71.4004 29.0669 71.4004 36.2002C71.4004 43.2669 69.7667 49.4335 66.5 54.7002C63.2333 59.9001 58.7003 63.9671 52.9004 66.9004C47.1004 69.7671 40.3998 71.2002 32.7998 71.2002H4C2.34315 71.2002 1 69.857 1 68.2002V60.9004C1 59.2435 2.34315 57.9004 4 57.9004H32C36.6667 57.9004 40.7006 57.0331 44.1006 55.2998C47.567 53.4998 50.234 50.9667 52.1006 47.7002C54.0339 44.4336 55 40.6001 55 36.2002C55 31.7336 54.0338 27.9002 52.1006 24.7002C50.234 21.4336 47.5671 18.9335 44.1006 17.2002C40.7006 15.4002 36.6667 14.5 32 14.5H4C2.34315 14.5 1 13.1569 1 11.5V4.2002C1 2.54334 2.34315 1.2002 4 1.2002H32.7998Z" fill="#004488"/>
<path d="M117.5 0C123.7 0 129.267 1.03392 134.2 3.10059C138.264 4.78045 141.8 7.07703 144.807 9.9902C145.969 11.1166 145.856 12.9721 144.666 14.0701L138.573 19.6943C137.368 20.8067 135.505 20.7288 134.26 19.6612C132.329 18.0058 130.276 16.7186 128.1 15.7998C125.1 14.4666 121.833 13.7998 118.3 13.7998C114.9 13.7998 111.8 14.3337 109 15.4004C106.2 16.467 103.767 18.0001 101.7 20C99.7002 22 98.1333 24.3673 97 27.1006C95.9334 29.8338 95.4004 32.867 95.4004 36.2002C95.4004 39.4669 95.9333 42.4669 97 45.2002C98.1333 47.9335 99.7002 50.3337 101.7 52.4004C103.767 54.4003 106.167 55.9334 108.9 57C111.7 58.0666 114.767 58.6005 118.1 58.6006C121.3 58.6006 124.4 58.1006 127.4 57.1006C127.96 56.906 128.516 56.6877 129.068 56.446C130.089 55.9997 130.7 54.9626 130.7 53.8485V38.1006C130.7 36.4437 132.043 35.1006 133.7 35.1006H142.5C144.157 35.1006 145.5 36.4437 145.5 38.1006V62.0052C145.5 62.9466 145.063 63.8396 144.289 64.3761C140.767 66.8189 136.738 68.7273 132.2 70.1006C127.2 71.6339 122.2 72.4004 117.2 72.4004C111.667 72.4004 106.567 71.5331 101.9 69.7998C97.3004 67.9998 93.2665 65.4669 89.7998 62.2002C86.3998 58.9335 83.7331 55.1002 81.7998 50.7002C79.9332 46.3002 79 41.4668 79 36.2002C79 30.9336 79.9332 26.1002 81.7998 21.7002C83.7331 17.3002 86.4337 13.4669 89.9004 10.2002C93.3669 6.9337 97.4332 4.43349 102.1 2.7002C106.766 0.900199 111.9 0 117.5 0Z" fill="#004488"/>
<path d="M186.313 181.688C185.761 181.688 185.313 181.241 185.313 180.688V157.488C185.313 156.936 185.761 156.488 186.313 156.488H187.913C188.466 156.488 188.913 156.936 188.913 157.488V180.688C188.913 181.241 188.466 181.688 187.913 181.688H186.313Z" fill="#004488"/>
<path d="M170.298 181.976C168.378 181.976 166.542 181.688 164.79 181.112C163.343 180.617 162.149 180.006 161.21 179.282C160.864 179.015 160.777 178.54 160.964 178.146L161.415 177.195C161.699 176.596 162.481 176.434 163.036 176.797C163.792 177.291 164.665 177.721 165.654 178.088C167.142 178.64 168.69 178.916 170.298 178.916C171.762 178.916 172.95 178.748 173.862 178.412C174.774 178.076 175.446 177.62 175.878 177.044C176.31 176.444 176.526 175.772 176.526 175.028C176.526 174.164 176.238 173.468 175.662 172.94C175.11 172.412 174.378 171.992 173.466 171.68C172.578 171.344 171.594 171.056 170.514 170.816C169.434 170.576 168.342 170.3 167.238 169.988C166.158 169.652 165.162 169.232 164.25 168.728C163.362 168.224 162.642 167.552 162.09 166.712C161.538 165.848 161.262 164.744 161.262 163.4C161.262 162.104 161.598 160.916 162.27 159.836C162.966 158.732 164.022 157.856 165.438 157.208C166.878 156.536 168.702 156.2 170.91 156.2C172.374 156.2 173.826 156.392 175.266 156.776C176.405 157.08 177.423 157.489 178.322 158.003C178.732 158.237 178.881 158.745 178.7 159.183L178.287 160.186C178.046 160.769 177.333 160.983 176.775 160.688C176.012 160.285 175.221 159.977 174.402 159.764C173.202 159.428 172.038 159.26 170.91 159.26C169.494 159.26 168.33 159.44 167.418 159.8C166.506 160.16 165.834 160.64 165.402 161.24C164.994 161.84 164.79 162.512 164.79 163.256C164.79 164.144 165.066 164.852 165.618 165.38C166.194 165.908 166.926 166.328 167.814 166.64C168.726 166.952 169.722 167.24 170.802 167.504C171.882 167.744 172.962 168.02 174.042 168.332C175.146 168.644 176.142 169.052 177.03 169.556C177.942 170.06 178.674 170.732 179.226 171.572C179.778 172.412 180.054 173.492 180.054 174.812C180.054 176.084 179.706 177.272 179.01 178.376C178.314 179.456 177.234 180.332 175.77 181.004C174.33 181.652 172.506 181.976 170.298 181.976Z" fill="#004488"/>
<path d="M156.621 158.62C156.621 159.172 156.173 159.62 155.621 159.62H143.437C142.884 159.62 142.437 160.068 142.437 160.62V166.36C142.437 166.913 142.884 167.36 143.437 167.36H154.072C154.625 167.36 155.072 167.808 155.072 168.36V169.421C155.072 169.973 154.625 170.421 154.072 170.421H143.437C142.884 170.421 142.437 170.869 142.437 171.421V177.557C142.437 178.109 142.884 178.557 143.437 178.557H156.125C156.677 178.557 157.125 179.004 157.125 179.557V180.688C157.125 181.241 156.677 181.688 156.125 181.688H139.837C139.285 181.688 138.837 181.241 138.837 180.688V157.488C138.837 156.936 139.285 156.488 139.837 156.488H155.621C156.173 156.488 156.621 156.936 156.621 157.488V158.62Z" fill="#004488"/>
<path d="M119.715 156.488C122.403 156.488 124.767 157.016 126.807 158.072C128.871 159.128 130.467 160.604 131.595 162.5C132.747 164.396 133.322 166.593 133.322 169.089C133.322 171.585 132.747 173.781 131.595 175.677C130.467 177.573 128.871 179.049 126.807 180.104C124.767 181.16 122.403 181.688 119.715 181.688H110.095C109.542 181.688 109.095 181.241 109.095 180.688V179.557C109.095 179.004 109.542 178.557 110.095 178.557H119.498C121.586 178.557 123.386 178.16 124.898 177.368C126.434 176.576 127.623 175.473 128.463 174.057C129.303 172.617 129.723 170.961 129.723 169.089C129.723 167.193 129.303 165.536 128.463 164.12C127.623 162.704 126.434 161.601 124.898 160.809C123.386 160.017 121.586 159.62 119.498 159.62H110.095C109.542 159.62 109.095 159.172 109.095 158.62V157.488C109.095 156.936 109.542 156.488 110.095 156.488H119.715Z" fill="#004488"/>
<path d="M57.5189 181.976C54.2069 181.976 51.6029 181.028 49.7069 179.132C47.8109 177.236 46.8629 174.464 46.8629 170.816V157.488C46.8629 156.936 47.3106 156.488 47.8629 156.488H49.4629C50.0151 156.488 50.4629 156.936 50.4629 157.488V170.672C50.4629 173.48 51.0749 175.532 52.2989 176.828C53.5469 178.124 55.2989 178.772 57.5549 178.772C59.8349 178.772 61.5869 178.124 62.8109 176.828C64.0589 175.532 64.6829 173.48 64.6829 170.672V157.488C64.6829 156.936 65.1306 156.488 65.6829 156.488H67.1749C67.7271 156.488 68.1749 156.936 68.1749 157.488V170.816C68.1749 174.464 67.2269 177.236 65.3309 179.132C63.4589 181.028 60.8549 181.976 57.5189 181.976Z" fill="#004488"/>
<path fill-rule="evenodd" clip-rule="evenodd" d="M82.808 165.042C83.2083 165.591 84.0279 165.589 84.4262 165.039L90.3129 156.902C90.5009 156.642 90.8023 156.488 91.1231 156.488H92.5679C93.386 156.488 93.858 157.417 93.3756 158.078L86.0851 168.064C85.8285 168.416 85.8286 168.893 86.0855 169.244L94.021 180.098C94.504 180.759 94.0322 181.688 93.2137 181.688H91.5531C91.2332 181.688 90.9326 181.535 90.7444 181.277L84.3024 172.419C83.9015 171.868 83.0786 171.871 82.6812 172.424L76.3314 181.272C76.1436 181.533 75.8412 181.688 75.519 181.688H73.8645C73.0455 181.688 72.5737 180.758 73.0579 180.097L80.9278 169.361C81.1844 169.011 81.1859 168.535 80.9314 168.183L73.6157 158.075C73.1372 157.413 73.6096 156.488 74.4258 156.488H76.0637C76.3833 156.488 76.6836 156.641 76.8718 156.899L82.808 165.042Z" fill="#004488"/>
<path fill-rule="evenodd" clip-rule="evenodd" d="M207.906 156.2C209.898 156.2 211.722 156.525 213.378 157.173C214.732 157.703 215.917 158.449 216.934 159.412C217.318 159.776 217.297 160.381 216.923 160.756L216.056 161.622C215.669 162.009 215.045 162.008 214.621 161.661C213.795 160.987 212.913 160.474 211.974 160.124C210.774 159.644 209.466 159.404 208.05 159.404C206.61 159.404 205.266 159.644 204.018 160.124C202.794 160.604 201.725 161.277 200.813 162.141C199.926 163.005 199.23 164.036 198.726 165.236C198.246 166.412 198.006 167.697 198.006 169.089C198.006 170.457 198.246 171.741 198.726 172.94C199.23 174.116 199.926 175.148 200.813 176.036C201.725 176.9 202.794 177.573 204.018 178.053C205.242 178.533 206.574 178.772 208.014 178.772C209.358 178.772 210.642 178.568 211.866 178.16C212.417 177.97 212.947 177.724 213.46 177.426C213.751 177.256 213.918 176.939 213.918 176.603V169.944C213.918 169.392 214.366 168.944 214.918 168.944H216.374C216.926 168.944 217.374 169.392 217.374 169.944V178.466C217.374 178.66 217.287 178.844 217.138 178.968C215.942 179.928 214.557 180.667 212.981 181.185C211.326 181.712 209.61 181.977 207.834 181.977C205.89 181.977 204.102 181.664 202.47 181.04C200.838 180.392 199.422 179.493 198.222 178.341C197.022 177.165 196.086 175.796 195.414 174.236C194.742 172.676 194.405 170.961 194.405 169.089C194.405 167.217 194.742 165.5 195.414 163.94C196.086 162.38 197.022 161.024 198.222 159.872C199.446 158.696 200.874 157.797 202.506 157.173C204.138 156.525 205.938 156.2 207.906 156.2Z" fill="#004488"/>
<path d="M240.559 173.055C241.151 173.79 242.338 173.372 242.338 172.428V157.488C242.338 156.936 242.786 156.488 243.338 156.488H244.938C245.491 156.488 245.938 156.936 245.938 157.488V180.688C245.938 181.241 245.491 181.688 244.938 181.688H243.465C243.162 181.688 242.876 181.551 242.686 181.316L229.645 165.119C229.053 164.384 227.866 164.803 227.866 165.747V180.688C227.866 181.241 227.418 181.688 226.866 181.688H225.267C224.714 181.688 224.267 181.241 224.267 180.688V157.488C224.267 156.936 224.714 156.488 225.267 156.488H226.74C227.043 156.488 227.329 156.625 227.519 156.861L240.559 173.055Z" fill="#004488"/>
<path d="M293.062 71.7347C293.384 70.8641 294.616 70.8641 294.938 71.7347L297.622 78.9877C297.723 79.2614 297.939 79.4772 298.213 79.5785L305.465 82.2623C306.336 82.5845 306.336 83.8159 305.465 84.138L298.213 86.8219C297.939 86.9232 297.723 87.139 297.622 87.4127L294.938 94.6657C294.616 95.5363 293.384 95.5363 293.062 94.6657L290.378 87.4127C290.277 87.139 290.061 86.9232 289.787 86.8219L282.535 84.138C281.664 83.8159 281.664 82.5845 282.535 82.2623L289.787 79.5785C290.061 79.4772 290.277 79.2614 290.378 78.9877L293.062 71.7347Z" fill="#0077DD"/>
<path d="M307.062 61.7347C307.384 60.8641 308.616 60.8641 308.938 61.7347L310.541 66.068C310.643 66.3418 310.858 66.5576 311.132 66.6589L315.465 68.2623C316.336 68.5845 316.336 69.8159 315.465 70.138L311.132 71.7415C310.858 71.8428 310.643 72.0586 310.541 72.3323L308.938 76.6657C308.616 77.5363 307.384 77.5363 307.062 76.6657L305.459 72.3323C305.357 72.0586 305.142 71.8428 304.868 71.7415L300.535 70.138C299.664 69.8159 299.664 68.5845 300.535 68.2623L304.868 66.6589C305.142 66.5576 305.357 66.3418 305.459 66.068L307.062 61.7347Z" fill="#0077DD"/>
</svg>
