<svg xmlns="http://www.w3.org/2000/svg" viewBox="0 0 300 150" id="el_ltldw22Nx"><style>@-webkit-keyframes kf_el_ZcscS6qVcyC_an_rxf6NB5eh{12.50%{-webkit-transform: translate(69.38550662994385px, 66.10449886322021px) translate(-69.38550662994385px, -66.10449886322021px) translate(0px, 0px);transform: translate(69.38550662994385px, 66.10449886322021px) translate(-69.38550662994385px, -66.10449886322021px) translate(0px, 0px);}50%{-webkit-transform: translate(69.38550662994385px, 66.10449886322021px) translate(-69.38550662994385px, -66.10449886322021px) translate(0px, 1px);transform: translate(69.38550662994385px, 66.10449886322021px) translate(-69.38550662994385px, -66.10449886322021px) translate(0px, 1px);}87.50%{-webkit-transform: translate(69.38550662994385px, 66.10449886322021px) translate(-69.38550662994385px, -66.10449886322021px) translate(0px, 0px);transform: translate(69.38550662994385px, 66.10449886322021px) translate(-69.38550662994385px, -66.10449886322021px) translate(0px, 0px);}0%{-webkit-transform: translate(69.38550662994385px, 66.10449886322021px) translate(-69.38550662994385px, -66.10449886322021px) translate(0px, 0px);transform: translate(69.38550662994385px, 66.10449886322021px) translate(-69.38550662994385px, -66.10449886322021px) translate(0px, 0px);}100%{-webkit-transform: translate(69.38550662994385px, 66.10449886322021px) translate(-69.38550662994385px, -66.10449886322021px) translate(0px, 0px);transform: translate(69.38550662994385px, 66.10449886322021px) translate(-69.38550662994385px, -66.10449886322021px) translate(0px, 0px);}}@keyframes kf_el_ZcscS6qVcyC_an_rxf6NB5eh{12.50%{-webkit-transform: translate(69.38550662994385px, 66.10449886322021px) translate(-69.38550662994385px, -66.10449886322021px) translate(0px, 0px);transform: translate(69.38550662994385px, 66.10449886322021px) translate(-69.38550662994385px, -66.10449886322021px) translate(0px, 0px);}50%{-webkit-transform: translate(69.38550662994385px, 66.10449886322021px) translate(-69.38550662994385px, -66.10449886322021px) translate(0px, 1px);transform: translate(69.38550662994385px, 66.10449886322021px) translate(-69.38550662994385px, -66.10449886322021px) translate(0px, 1px);}87.50%{-webkit-transform: translate(69.38550662994385px, 66.10449886322021px) translate(-69.38550662994385px, -66.10449886322021px) translate(0px, 0px);transform: translate(69.38550662994385px, 66.10449886322021px) translate(-69.38550662994385px, -66.10449886322021px) translate(0px, 0px);}0%{-webkit-transform: translate(69.38550662994385px, 66.10449886322021px) translate(-69.38550662994385px, -66.10449886322021px) translate(0px, 0px);transform: translate(69.38550662994385px, 66.10449886322021px) translate(-69.38550662994385px, -66.10449886322021px) translate(0px, 0px);}100%{-webkit-transform: translate(69.38550662994385px, 66.10449886322021px) translate(-69.38550662994385px, -66.10449886322021px) translate(0px, 0px);transform: translate(69.38550662994385px, 66.10449886322021px) translate(-69.38550662994385px, -66.10449886322021px) translate(0px, 0px);}}@-webkit-keyframes kf_el_ZcscS6qVcyC_an_SfIwmPIFa{12.50%{-webkit-transform: translate(69.38550662994385px, 66.10449886322021px) rotate(0deg) translate(-69.38550662994385px, -66.10449886322021px);transform: translate(69.38550662994385px, 66.10449886322021px) rotate(0deg) translate(-69.38550662994385px, -66.10449886322021px);}87.50%{-webkit-transform: translate(69.38550662994385px, 66.10449886322021px) rotate(360deg) translate(-69.38550662994385px, -66.10449886322021px);transform: translate(69.38550662994385px, 66.10449886322021px) rotate(360deg) translate(-69.38550662994385px, -66.10449886322021px);}0%{-webkit-transform: translate(69.38550662994385px, 66.10449886322021px) rotate(0deg) translate(-69.38550662994385px, -66.10449886322021px);transform: translate(69.38550662994385px, 66.10449886322021px) rotate(0deg) translate(-69.38550662994385px, -66.10449886322021px);}100%{-webkit-transform: translate(69.38550662994385px, 66.10449886322021px) rotate(360deg) translate(-69.38550662994385px, -66.10449886322021px);transform: translate(69.38550662994385px, 66.10449886322021px) rotate(360deg) translate(-69.38550662994385px, -66.10449886322021px);}}@keyframes kf_el_ZcscS6qVcyC_an_SfIwmPIFa{12.50%{-webkit-transform: translate(69.38550662994385px, 66.10449886322021px) rotate(0deg) translate(-69.38550662994385px, -66.10449886322021px);transform: translate(69.38550662994385px, 66.10449886322021px) rotate(0deg) translate(-69.38550662994385px, -66.10449886322021px);}87.50%{-webkit-transform: translate(69.38550662994385px, 66.10449886322021px) rotate(360deg) translate(-69.38550662994385px, -66.10449886322021px);transform: translate(69.38550662994385px, 66.10449886322021px) rotate(360deg) translate(-69.38550662994385px, -66.10449886322021px);}0%{-webkit-transform: translate(69.38550662994385px, 66.10449886322021px) rotate(0deg) translate(-69.38550662994385px, -66.10449886322021px);transform: translate(69.38550662994385px, 66.10449886322021px) rotate(0deg) translate(-69.38550662994385px, -66.10449886322021px);}100%{-webkit-transform: translate(69.38550662994385px, 66.10449886322021px) rotate(360deg) translate(-69.38550662994385px, -66.10449886322021px);transform: translate(69.38550662994385px, 66.10449886322021px) rotate(360deg) translate(-69.38550662994385px, -66.10449886322021px);}}@-webkit-keyframes kf_el_bBLQLgR3ctn_an_MIn0Mub2M{58.33%{opacity: 1;}62.50%{opacity: 0;}0%{opacity: 1;}100%{opacity: 0;}}@keyframes kf_el_bBLQLgR3ctn_an_MIn0Mub2M{58.33%{opacity: 1;}62.50%{opacity: 0;}0%{opacity: 1;}100%{opacity: 0;}}@-webkit-keyframes kf_el_bBLQLgR3ctn_an_eZo_YfENL{12.50%{-webkit-transform: translate(163.82398986816406px, 31.459997177124023px) translate(-163.82398986816406px, -31.459997177124023px) translate(0px, 0px);transform: translate(163.82398986816406px, 31.459997177124023px) translate(-163.82398986816406px, -31.459997177124023px) translate(0px, 0px);}16.67%{-webkit-transform: translate(163.82398986816406px, 31.459997177124023px) translate(-163.82398986816406px, -31.459997177124023px) translate(10px, 3px);transform: translate(163.82398986816406px, 31.459997177124023px) translate(-163.82398986816406px, -31.459997177124023px) translate(10px, 3px);}20.83%{-webkit-transform: translate(163.82398986816406px, 31.459997177124023px) translate(-163.82398986816406px, -31.459997177124023px) translate(20px, 15px);transform: translate(163.82398986816406px, 31.459997177124023px) translate(-163.82398986816406px, -31.459997177124023px) translate(20px, 15px);}29.17%{-webkit-transform: translate(163.82398986816406px, 31.459997177124023px) translate(-163.82398986816406px, -31.459997177124023px) translate(21px, 68px);transform: translate(163.82398986816406px, 31.459997177124023px) translate(-163.82398986816406px, -31.459997177124023px) translate(21px, 68px);}33.33%{-webkit-transform: translate(163.82398986816406px, 31.459997177124023px) translate(-163.82398986816406px, -31.459997177124023px) translate(34px, 68px);transform: translate(163.82398986816406px, 31.459997177124023px) translate(-163.82398986816406px, -31.459997177124023px) translate(34px, 68px);}37.50%{-webkit-transform: translate(163.82398986816406px, 31.459997177124023px) translate(-163.82398986816406px, -31.459997177124023px) translate(47px, 55px);transform: translate(163.82398986816406px, 31.459997177124023px) translate(-163.82398986816406px, -31.459997177124023px) translate(47px, 55px);}41.67%{-webkit-transform: translate(163.82398986816406px, 31.459997177124023px) translate(-163.82398986816406px, -31.459997177124023px) translate(53px, 36px);transform: translate(163.82398986816406px, 31.459997177124023px) translate(-163.82398986816406px, -31.459997177124023px) translate(53px, 36px);}45.83%{-webkit-transform: translate(163.82398986816406px, 31.459997177124023px) translate(-163.82398986816406px, -31.459997177124023px) translate(65px, 31px);transform: translate(163.82398986816406px, 31.459997177124023px) translate(-163.82398986816406px, -31.459997177124023px) translate(65px, 31px);}50%{-webkit-transform: translate(163.82398986816406px, 31.459997177124023px) translate(-163.82398986816406px, -31.459997177124023px) translate(76px, 35px);transform: translate(163.82398986816406px, 31.459997177124023px) translate(-163.82398986816406px, -31.459997177124023px) translate(76px, 35px);}54.17%{-webkit-transform: translate(163.82398986816406px, 31.459997177124023px) translate(-163.82398986816406px, -31.459997177124023px) translate(82px, 45px);transform: translate(163.82398986816406px, 31.459997177124023px) translate(-163.82398986816406px, -31.459997177124023px) translate(82px, 45px);}62.50%{-webkit-transform: translate(163.82398986816406px, 31.459997177124023px) translate(-163.82398986816406px, -31.459997177124023px) translate(83px, 90px);transform: translate(163.82398986816406px, 31.459997177124023px) translate(-163.82398986816406px, -31.459997177124023px) translate(83px, 90px);}0%{-webkit-transform: translate(163.82398986816406px, 31.459997177124023px) translate(-163.82398986816406px, -31.459997177124023px) translate(0px, 0px);transform: translate(163.82398986816406px, 31.459997177124023px) translate(-163.82398986816406px, -31.459997177124023px) translate(0px, 0px);}100%{-webkit-transform: translate(163.82398986816406px, 31.459997177124023px) translate(-163.82398986816406px, -31.459997177124023px) translate(83px, 90px);transform: translate(163.82398986816406px, 31.459997177124023px) translate(-163.82398986816406px, -31.459997177124023px) translate(83px, 90px);}}@keyframes kf_el_bBLQLgR3ctn_an_eZo_YfENL{12.50%{-webkit-transform: translate(163.82398986816406px, 31.459997177124023px) translate(-163.82398986816406px, -31.459997177124023px) translate(0px, 0px);transform: translate(163.82398986816406px, 31.459997177124023px) translate(-163.82398986816406px, -31.459997177124023px) translate(0px, 0px);}16.67%{-webkit-transform: translate(163.82398986816406px, 31.459997177124023px) translate(-163.82398986816406px, -31.459997177124023px) translate(10px, 3px);transform: translate(163.82398986816406px, 31.459997177124023px) translate(-163.82398986816406px, -31.459997177124023px) translate(10px, 3px);}20.83%{-webkit-transform: translate(163.82398986816406px, 31.459997177124023px) translate(-163.82398986816406px, -31.459997177124023px) translate(20px, 15px);transform: translate(163.82398986816406px, 31.459997177124023px) translate(-163.82398986816406px, -31.459997177124023px) translate(20px, 15px);}29.17%{-webkit-transform: translate(163.82398986816406px, 31.459997177124023px) translate(-163.82398986816406px, -31.459997177124023px) translate(21px, 68px);transform: translate(163.82398986816406px, 31.459997177124023px) translate(-163.82398986816406px, -31.459997177124023px) translate(21px, 68px);}33.33%{-webkit-transform: translate(163.82398986816406px, 31.459997177124023px) translate(-163.82398986816406px, -31.459997177124023px) translate(34px, 68px);transform: translate(163.82398986816406px, 31.459997177124023px) translate(-163.82398986816406px, -31.459997177124023px) translate(34px, 68px);}37.50%{-webkit-transform: translate(163.82398986816406px, 31.459997177124023px) translate(-163.82398986816406px, -31.459997177124023px) translate(47px, 55px);transform: translate(163.82398986816406px, 31.459997177124023px) translate(-163.82398986816406px, -31.459997177124023px) translate(47px, 55px);}41.67%{-webkit-transform: translate(163.82398986816406px, 31.459997177124023px) translate(-163.82398986816406px, -31.459997177124023px) translate(53px, 36px);transform: translate(163.82398986816406px, 31.459997177124023px) translate(-163.82398986816406px, -31.459997177124023px) translate(53px, 36px);}45.83%{-webkit-transform: translate(163.82398986816406px, 31.459997177124023px) translate(-163.82398986816406px, -31.459997177124023px) translate(65px, 31px);transform: translate(163.82398986816406px, 31.459997177124023px) translate(-163.82398986816406px, -31.459997177124023px) translate(65px, 31px);}50%{-webkit-transform: translate(163.82398986816406px, 31.459997177124023px) translate(-163.82398986816406px, -31.459997177124023px) translate(76px, 35px);transform: translate(163.82398986816406px, 31.459997177124023px) translate(-163.82398986816406px, -31.459997177124023px) translate(76px, 35px);}54.17%{-webkit-transform: translate(163.82398986816406px, 31.459997177124023px) translate(-163.82398986816406px, -31.459997177124023px) translate(82px, 45px);transform: translate(163.82398986816406px, 31.459997177124023px) translate(-163.82398986816406px, -31.459997177124023px) translate(82px, 45px);}62.50%{-webkit-transform: translate(163.82398986816406px, 31.459997177124023px) translate(-163.82398986816406px, -31.459997177124023px) translate(83px, 90px);transform: translate(163.82398986816406px, 31.459997177124023px) translate(-163.82398986816406px, -31.459997177124023px) translate(83px, 90px);}0%{-webkit-transform: translate(163.82398986816406px, 31.459997177124023px) translate(-163.82398986816406px, -31.459997177124023px) translate(0px, 0px);transform: translate(163.82398986816406px, 31.459997177124023px) translate(-163.82398986816406px, -31.459997177124023px) translate(0px, 0px);}100%{-webkit-transform: translate(163.82398986816406px, 31.459997177124023px) translate(-163.82398986816406px, -31.459997177124023px) translate(83px, 90px);transform: translate(163.82398986816406px, 31.459997177124023px) translate(-163.82398986816406px, -31.459997177124023px) translate(83px, 90px);}}@-webkit-keyframes kf_el_Iytx6Aef0yI_an_MOHJ0GbNe{71.67%{opacity: 1;}75%{opacity: 0;}0%{opacity: 1;}100%{opacity: 0;}}@keyframes kf_el_Iytx6Aef0yI_an_MOHJ0GbNe{71.67%{opacity: 1;}75%{opacity: 0;}0%{opacity: 1;}100%{opacity: 0;}}@-webkit-keyframes kf_el_Iytx6Aef0yI_an_SqzWLe1Ij{12.50%{-webkit-transform: translate(124.06898498535156px, 52.56499481201172px) translate(-124.06898498535156px, -52.56499481201172px) translate(0px, 0px);transform: translate(124.06898498535156px, 52.56499481201172px) translate(-124.06898498535156px, -52.56499481201172px) translate(0px, 0px);}20.83%{-webkit-transform: translate(124.06898498535156px, 52.56499481201172px) translate(-124.06898498535156px, -52.56499481201172px) translate(8px, -5px);transform: translate(124.06898498535156px, 52.56499481201172px) translate(-124.06898498535156px, -52.56499481201172px) translate(8px, -5px);}27.08%{-webkit-transform: translate(124.06898498535156px, 52.56499481201172px) translate(-124.06898498535156px, -52.56499481201172px) translate(19px, -5px);transform: translate(124.06898498535156px, 52.56499481201172px) translate(-124.06898498535156px, -52.56499481201172px) translate(19px, -5px);}31.25%{-webkit-transform: translate(124.06898498535156px, 52.56499481201172px) translate(-124.06898498535156px, -52.56499481201172px) translate(29px, -18px);transform: translate(124.06898498535156px, 52.56499481201172px) translate(-124.06898498535156px, -52.56499481201172px) translate(29px, -18px);}35.42%{-webkit-transform: translate(124.06898498535156px, 52.56499481201172px) translate(-124.06898498535156px, -52.56499481201172px) translate(40px, -21px);transform: translate(124.06898498535156px, 52.56499481201172px) translate(-124.06898498535156px, -52.56499481201172px) translate(40px, -21px);}38.33%{-webkit-transform: translate(124.06898498535156px, 52.56499481201172px) translate(-124.06898498535156px, -52.56499481201172px) translate(51px, -17px);transform: translate(124.06898498535156px, 52.56499481201172px) translate(-124.06898498535156px, -52.56499481201172px) translate(51px, -17px);}41.67%{-webkit-transform: translate(124.06898498535156px, 52.56499481201172px) translate(-124.06898498535156px, -52.56499481201172px) translate(60px, -5px);transform: translate(124.06898498535156px, 52.56499481201172px) translate(-124.06898498535156px, -52.56499481201172px) translate(60px, -5px);}47.92%{-webkit-transform: translate(124.06898498535156px, 52.56499481201172px) translate(-124.06898498535156px, -52.56499481201172px) translate(60px, 47px);transform: translate(124.06898498535156px, 52.56499481201172px) translate(-124.06898498535156px, -52.56499481201172px) translate(60px, 47px);}51.25%{-webkit-transform: translate(124.06898498535156px, 52.56499481201172px) translate(-124.06898498535156px, -52.56499481201172px) translate(74px, 47px);transform: translate(124.06898498535156px, 52.56499481201172px) translate(-124.06898498535156px, -52.56499481201172px) translate(74px, 47px);}54.58%{-webkit-transform: translate(124.06898498535156px, 52.56499481201172px) translate(-124.06898498535156px, -52.56499481201172px) translate(87px, 35px);transform: translate(124.06898498535156px, 52.56499481201172px) translate(-124.06898498535156px, -52.56499481201172px) translate(87px, 35px);}58.33%{-webkit-transform: translate(124.06898498535156px, 52.56499481201172px) translate(-124.06898498535156px, -52.56499481201172px) translate(90px, 18px);transform: translate(124.06898498535156px, 52.56499481201172px) translate(-124.06898498535156px, -52.56499481201172px) translate(90px, 18px);}62.50%{-webkit-transform: translate(124.06898498535156px, 52.56499481201172px) translate(-124.06898498535156px, -52.56499481201172px) translate(105px, 10px);transform: translate(124.06898498535156px, 52.56499481201172px) translate(-124.06898498535156px, -52.56499481201172px) translate(105px, 10px);}65.83%{-webkit-transform: translate(124.06898498535156px, 52.56499481201172px) translate(-124.06898498535156px, -52.56499481201172px) translate(116px, 15px);transform: translate(124.06898498535156px, 52.56499481201172px) translate(-124.06898498535156px, -52.56499481201172px) translate(116px, 15px);}68.75%{-webkit-transform: translate(124.06898498535156px, 52.56499481201172px) translate(-124.06898498535156px, -52.56499481201172px) translate(122px, 23px);transform: translate(124.06898498535156px, 52.56499481201172px) translate(-124.06898498535156px, -52.56499481201172px) translate(122px, 23px);}75%{-webkit-transform: translate(124.06898498535156px, 52.56499481201172px) translate(-124.06898498535156px, -52.56499481201172px) translate(123px, 68px);transform: translate(124.06898498535156px, 52.56499481201172px) translate(-124.06898498535156px, -52.56499481201172px) translate(123px, 68px);}0%{-webkit-transform: translate(124.06898498535156px, 52.56499481201172px) translate(-124.06898498535156px, -52.56499481201172px) translate(0px, 0px);transform: translate(124.06898498535156px, 52.56499481201172px) translate(-124.06898498535156px, -52.56499481201172px) translate(0px, 0px);}100%{-webkit-transform: translate(124.06898498535156px, 52.56499481201172px) translate(-124.06898498535156px, -52.56499481201172px) translate(123px, 68px);transform: translate(124.06898498535156px, 52.56499481201172px) translate(-124.06898498535156px, -52.56499481201172px) translate(123px, 68px);}}@keyframes kf_el_Iytx6Aef0yI_an_SqzWLe1Ij{12.50%{-webkit-transform: translate(124.06898498535156px, 52.56499481201172px) translate(-124.06898498535156px, -52.56499481201172px) translate(0px, 0px);transform: translate(124.06898498535156px, 52.56499481201172px) translate(-124.06898498535156px, -52.56499481201172px) translate(0px, 0px);}20.83%{-webkit-transform: translate(124.06898498535156px, 52.56499481201172px) translate(-124.06898498535156px, -52.56499481201172px) translate(8px, -5px);transform: translate(124.06898498535156px, 52.56499481201172px) translate(-124.06898498535156px, -52.56499481201172px) translate(8px, -5px);}27.08%{-webkit-transform: translate(124.06898498535156px, 52.56499481201172px) translate(-124.06898498535156px, -52.56499481201172px) translate(19px, -5px);transform: translate(124.06898498535156px, 52.56499481201172px) translate(-124.06898498535156px, -52.56499481201172px) translate(19px, -5px);}31.25%{-webkit-transform: translate(124.06898498535156px, 52.56499481201172px) translate(-124.06898498535156px, -52.56499481201172px) translate(29px, -18px);transform: translate(124.06898498535156px, 52.56499481201172px) translate(-124.06898498535156px, -52.56499481201172px) translate(29px, -18px);}35.42%{-webkit-transform: translate(124.06898498535156px, 52.56499481201172px) translate(-124.06898498535156px, -52.56499481201172px) translate(40px, -21px);transform: translate(124.06898498535156px, 52.56499481201172px) translate(-124.06898498535156px, -52.56499481201172px) translate(40px, -21px);}38.33%{-webkit-transform: translate(124.06898498535156px, 52.56499481201172px) translate(-124.06898498535156px, -52.56499481201172px) translate(51px, -17px);transform: translate(124.06898498535156px, 52.56499481201172px) translate(-124.06898498535156px, -52.56499481201172px) translate(51px, -17px);}41.67%{-webkit-transform: translate(124.06898498535156px, 52.56499481201172px) translate(-124.06898498535156px, -52.56499481201172px) translate(60px, -5px);transform: translate(124.06898498535156px, 52.56499481201172px) translate(-124.06898498535156px, -52.56499481201172px) translate(60px, -5px);}47.92%{-webkit-transform: translate(124.06898498535156px, 52.56499481201172px) translate(-124.06898498535156px, -52.56499481201172px) translate(60px, 47px);transform: translate(124.06898498535156px, 52.56499481201172px) translate(-124.06898498535156px, -52.56499481201172px) translate(60px, 47px);}51.25%{-webkit-transform: translate(124.06898498535156px, 52.56499481201172px) translate(-124.06898498535156px, -52.56499481201172px) translate(74px, 47px);transform: translate(124.06898498535156px, 52.56499481201172px) translate(-124.06898498535156px, -52.56499481201172px) translate(74px, 47px);}54.58%{-webkit-transform: translate(124.06898498535156px, 52.56499481201172px) translate(-124.06898498535156px, -52.56499481201172px) translate(87px, 35px);transform: translate(124.06898498535156px, 52.56499481201172px) translate(-124.06898498535156px, -52.56499481201172px) translate(87px, 35px);}58.33%{-webkit-transform: translate(124.06898498535156px, 52.56499481201172px) translate(-124.06898498535156px, -52.56499481201172px) translate(90px, 18px);transform: translate(124.06898498535156px, 52.56499481201172px) translate(-124.06898498535156px, -52.56499481201172px) translate(90px, 18px);}62.50%{-webkit-transform: translate(124.06898498535156px, 52.56499481201172px) translate(-124.06898498535156px, -52.56499481201172px) translate(105px, 10px);transform: translate(124.06898498535156px, 52.56499481201172px) translate(-124.06898498535156px, -52.56499481201172px) translate(105px, 10px);}65.83%{-webkit-transform: translate(124.06898498535156px, 52.56499481201172px) translate(-124.06898498535156px, -52.56499481201172px) translate(116px, 15px);transform: translate(124.06898498535156px, 52.56499481201172px) translate(-124.06898498535156px, -52.56499481201172px) translate(116px, 15px);}68.75%{-webkit-transform: translate(124.06898498535156px, 52.56499481201172px) translate(-124.06898498535156px, -52.56499481201172px) translate(122px, 23px);transform: translate(124.06898498535156px, 52.56499481201172px) translate(-124.06898498535156px, -52.56499481201172px) translate(122px, 23px);}75%{-webkit-transform: translate(124.06898498535156px, 52.56499481201172px) translate(-124.06898498535156px, -52.56499481201172px) translate(123px, 68px);transform: translate(124.06898498535156px, 52.56499481201172px) translate(-124.06898498535156px, -52.56499481201172px) translate(123px, 68px);}0%{-webkit-transform: translate(124.06898498535156px, 52.56499481201172px) translate(-124.06898498535156px, -52.56499481201172px) translate(0px, 0px);transform: translate(124.06898498535156px, 52.56499481201172px) translate(-124.06898498535156px, -52.56499481201172px) translate(0px, 0px);}100%{-webkit-transform: translate(124.06898498535156px, 52.56499481201172px) translate(-124.06898498535156px, -52.56499481201172px) translate(123px, 68px);transform: translate(124.06898498535156px, 52.56499481201172px) translate(-124.06898498535156px, -52.56499481201172px) translate(123px, 68px);}}#el_ltldw22Nx *{-webkit-animation-duration: 8s;animation-duration: 8s;-webkit-animation-iteration-count: infinite;animation-iteration-count: infinite;-webkit-animation-timing-function: cubic-bezier(0, 0, 1, 1);animation-timing-function: cubic-bezier(0, 0, 1, 1);}#el_ott4a41qsH{fill: #1ad1ff;}#el_EgdP5Er2Me{fill: #fff;}#el_zr6BccoY6d{fill: #fff;}#el_uIt8ruh6my{fill: #fff;}#el_pW04NXDnWL{fill: #fff;}#el_Bo0hqQk32U{fill: #fff;}#el_FmIEGzpaDG{fill: #fff;}#el_mtRdHrJMHz{fill: #fff;}#el_9ujQR2o2l4{fill: #fff;}#el_Gsqk6xNeWD{fill: #fff;}#el_XPeFsCcgrE{fill: #fff;}#el_mAWLJd8jI-{fill: #fff;}#el_HuKWVYWIJM{fill: #fff;}#el_LYl-QY-hZ8k{fill: #fff;}#el_vVEydD7CKJS{fill: #fff;}#el_Iytx6Aef0yI{fill: #ff4040;-webkit-animation-fill-mode: backwards;animation-fill-mode: backwards;opacity: 1;-webkit-animation-name: kf_el_Iytx6Aef0yI_an_MOHJ0GbNe;animation-name: kf_el_Iytx6Aef0yI_an_MOHJ0GbNe;-webkit-animation-timing-function: cubic-bezier(0, 0, 1, 1);animation-timing-function: cubic-bezier(0, 0, 1, 1);}#el_kEPQ71YvFUn{fill: #ff4040;}#el_lUtZa0zLRno{fill: #1ad1ff;}#el_lQKVn3bbpHf{fill: #fff;}#el_Iytx6Aef0yI_an_SqzWLe1Ij{-webkit-animation-fill-mode: backwards;animation-fill-mode: backwards;-webkit-transform: translate(124.06898498535156px, 52.56499481201172px) translate(-124.06898498535156px, -52.56499481201172px) translate(0px, 0px);transform: translate(124.06898498535156px, 52.56499481201172px) translate(-124.06898498535156px, -52.56499481201172px) translate(0px, 0px);-webkit-animation-name: kf_el_Iytx6Aef0yI_an_SqzWLe1Ij;animation-name: kf_el_Iytx6Aef0yI_an_SqzWLe1Ij;-webkit-animation-timing-function: cubic-bezier(0, 0, 1, 1);animation-timing-function: cubic-bezier(0, 0, 1, 1);}#el_bBLQLgR3ctn_an_eZo_YfENL{-webkit-animation-fill-mode: backwards;animation-fill-mode: backwards;-webkit-transform: translate(163.82398986816406px, 31.459997177124023px) translate(-163.82398986816406px, -31.459997177124023px) translate(0px, 0px);transform: translate(163.82398986816406px, 31.459997177124023px) translate(-163.82398986816406px, -31.459997177124023px) translate(0px, 0px);-webkit-animation-name: kf_el_bBLQLgR3ctn_an_eZo_YfENL;animation-name: kf_el_bBLQLgR3ctn_an_eZo_YfENL;-webkit-animation-timing-function: cubic-bezier(0, 0, 1, 1);animation-timing-function: cubic-bezier(0, 0, 1, 1);}#el_bBLQLgR3ctn{-webkit-animation-fill-mode: backwards;animation-fill-mode: backwards;opacity: 1;-webkit-animation-name: kf_el_bBLQLgR3ctn_an_MIn0Mub2M;animation-name: kf_el_bBLQLgR3ctn_an_MIn0Mub2M;-webkit-animation-timing-function: cubic-bezier(0, 0, 1, 1);animation-timing-function: cubic-bezier(0, 0, 1, 1);}#el_ZcscS6qVcyC_an_SfIwmPIFa{-webkit-animation-fill-mode: backwards;animation-fill-mode: backwards;-webkit-transform: translate(69.38550662994385px, 66.10449886322021px) rotate(0deg) translate(-69.38550662994385px, -66.10449886322021px);transform: translate(69.38550662994385px, 66.10449886322021px) rotate(0deg) translate(-69.38550662994385px, -66.10449886322021px);-webkit-animation-name: kf_el_ZcscS6qVcyC_an_SfIwmPIFa;animation-name: kf_el_ZcscS6qVcyC_an_SfIwmPIFa;-webkit-animation-timing-function: cubic-bezier(0.42, 0, 0.58, 1);animation-timing-function: cubic-bezier(0.42, 0, 0.58, 1);}#el_ZcscS6qVcyC_an_rxf6NB5eh{-webkit-animation-fill-mode: backwards;animation-fill-mode: backwards;-webkit-transform: translate(69.38550662994385px, 66.10449886322021px) translate(-69.38550662994385px, -66.10449886322021px) translate(0px, 0px);transform: translate(69.38550662994385px, 66.10449886322021px) translate(-69.38550662994385px, -66.10449886322021px) translate(0px, 0px);-webkit-animation-name: kf_el_ZcscS6qVcyC_an_rxf6NB5eh;animation-name: kf_el_ZcscS6qVcyC_an_rxf6NB5eh;-webkit-animation-timing-function: cubic-bezier(0, 0, 1, 1);animation-timing-function: cubic-bezier(0, 0, 1, 1);}</style><defs/><title>animFeria</title><g id="el_reJMUO3pTe"><path d="M278.969,134.416V117.651l-41.342,0V71.686h-3.163v45.962h-7.121v16.765l-54.746,0V39.883h-3.16v94.532H140.664l0-78.074-3.161.8v77.273h-24.4v-5.271h-19.9l-4.641-15.212-2.958,1.143L89.9,129.147H85.052l-3.877-12.642-3.134.55,3.717,12.088H57l3.694-12.1-3.136-.568L53.69,129.147H48.851l4.292-14.073-2.971-1.092-4.626,15.163h-19.9V146.42H285.391v-12ZM230.5,120.809H275.81v2.866H238.388v3.161H275.81v7.581H230.5Zm-154.186,11.5H93.434v3.9H76.318ZM73.154,143.26H28.806V132.308H73.157Zm20.28,0H76.318v-3.9H93.441Zm16.506,0H96.6l0-10.952H109.94Zm172.292,0H113.107v-5.678H282.232Z" id="el_ott4a41qsH"/><path d="M255.822,87.794v29.812h-3.837V87.794A15.966,15.966,0,0,0,236.061,71.87h-.016A15.96,15.96,0,0,0,220.1,87.8V134.3h-3.837V101.275a19.7,19.7,0,0,1-15.94,8.087h-3.283a19.819,19.819,0,0,1-3.75-.365V134.3h-3.838V58.9a18.445,18.445,0,0,0-36.889,0v75.405h-3.838V58.9a22.514,22.514,0,0,1,.157-2.606H143.7A15.986,15.986,0,0,0,127.76,72.236V134.3h-3.837V72.235A19.834,19.834,0,0,1,143.7,52.456h5.985a22.388,22.388,0,0,1,21.327-15.837h0A22.305,22.305,0,0,1,193.294,58.9v46.157a15.6,15.6,0,0,0,3.75.467h3.283a15.982,15.982,0,0,0,15.94-15.94v-1.79a19.778,19.778,0,1,1,39.555,0Z" id="el_EgdP5Er2Me"/></g><g id="el_c-QcNvmsLS"><polygon points="176.988 8.653 176.988 10.237 180.063 10.237 180.063 17.324 182.14 17.324 182.14 10.237 185.215 10.237 185.215 8.653 176.988 8.653" id="el_zr6BccoY6d"/><path d="M188.608,14.867a2.919,2.919,0,0,1-.527-1.818A2.961,2.961,0,1,1,194,13.014a2.841,2.841,0,0,1-2.971,3.044,2.662,2.662,0,0,1-2.418-1.191m2.1-6.484c-2.723.122-4.764,1.634-4.764,4.618,0,2.7,1.772,4.605,5.117,4.605s5.057-1.94,5.057-4.7a4.588,4.588,0,0,0-.891-2.836,5.26,5.26,0,0,0-4.174-1.691c-.116,0-.231,0-.345.008" id="el_uIt8ruh6my"/><path d="M204.739,8.653v5.109a1.807,1.807,0,0,1-.352,1.4,2.244,2.244,0,0,1-1.619.687,3.562,3.562,0,0,1-1.877-.282,1.761,1.761,0,0,1-.94-1.818v-5.1h-2.066v5.036a3.242,3.242,0,0,0,1.315,3.094,4.339,4.339,0,0,0,1.431.627,7.046,7.046,0,0,0,1.75.208,5.027,5.027,0,0,0,3.708-1.326,3.619,3.619,0,0,0,.716-2.6V8.653Z" id="el_pW04NXDnWL"/><path d="M211.138,10.176h3.216c.822,0,1.023.209,1.174.417a1.274,1.274,0,0,1,.165.676c0,.97-.8,1.032-1.245,1.032h-3.31Zm-.583-1.523a1.414,1.414,0,0,0-1.494,1.355v7.316h2.077V13.836H213.5l2.218,3.488h2.441L215.645,13.7a3.047,3.047,0,0,0,1.35-.54,2.439,2.439,0,0,0,.8-1.916,2.647,2.647,0,0,0-.539-1.67,2.866,2.866,0,0,0-2.488-.921Z" id="el_Bo0hqQk32U"/><rect x="220.064" y="8.653" width="2.076" height="8.671" id="el_FmIEGzpaDG"/><path d="M224.586,9.856a2.452,2.452,0,0,0-.328,1.228c0,1.965,1.925,2.346,2.687,2.493.388.075,2.089.345,2.431.418.444.086,1.019.234,1.019.86,0,1.056-1.584,1.142-2.089,1.142a2.834,2.834,0,0,1-2.781-1.363l-1.89.515a4.6,4.6,0,0,0,4.53,2.445c1.045,0,4.214-.1,4.214-2.887,0-1.9-1.631-2.271-2.593-2.456-.389-.085-2.079-.38-2.418-.453-.622-.149-1.1-.3-1.1-.861,0-.823.939-1.007,1.855-1.007a3.906,3.906,0,0,1,1.667.332,1.59,1.59,0,0,1,.727.712l1.971-.516a3.533,3.533,0,0,0-1.373-1.4,5.708,5.708,0,0,0-2.992-.676c-1.314,0-2.84.307-3.533,1.473" id="el_mtRdHrJMHz"/><polygon points="233.313 8.653 233.313 10.237 236.39 10.237 236.39 17.324 238.466 17.324 238.466 10.237 241.542 10.237 241.542 8.653 233.313 8.653" id="el_9ujQR2o2l4"/><polygon points="242.783 8.641 242.783 17.326 250.803 17.326 250.803 16.256 244.013 16.256 244.013 13.328 250.803 13.328 250.803 12.308 244.013 12.308 244.013 9.712 250.803 9.712 250.803 8.641 242.783 8.641" id="el_Gsqk6xNeWD"/><path d="M254.57,9.686h4.773a1.655,1.655,0,0,1,1.587.641,1.676,1.676,0,0,1,.258.921,1.48,1.48,0,0,1-.294.924,2.375,2.375,0,0,1-2.03.665H254.57Zm-1.217-1.045v8.685h1.229V13.857h4.194l2.942,3.469h1.612l-3.2-3.666a2.4,2.4,0,0,0,2.336-2.46,2.368,2.368,0,0,0-.775-1.858,3.45,3.45,0,0,0-2.436-.7Z" id="el_XPeFsCcgrE"/><path d="M262.748,9.33a.689.689,0,0,0,.715.688.681.681,0,0,0,.7-.682.707.707,0,0,0-1.414-.006m.584.388h-.181v-.74a1.752,1.752,0,0,1,.3-.022.508.508,0,0,1,.272.054.2.2,0,0,1,.076.162c0,.081-.066.144-.163.171v.009a.225.225,0,0,1,.145.181.585.585,0,0,0,.057.185h-.2a.617.617,0,0,1-.063-.181c-.013-.081-.062-.118-.163-.118h-.087Zm.006-.42h.086c.1,0,.183-.031.183-.107s-.053-.113-.168-.113a.451.451,0,0,0-.1.008Z" id="el_mAWLJd8jI-"/><path d="M275.161,12.239a.459.459,0,0,0-.029.165.49.49,0,0,0,.49.49h2.525l2.975-1.643h-5.345s-.378.588-.49.757A1.693,1.693,0,0,0,275.161,12.239Z" id="el_HuKWVYWIJM"/><path d="M285.081,8.9a.122.122,0,0,0-.051-.234h-7.056a.979.979,0,0,0-.829.458l-.741,1.144h6.2Z" id="el_LYl-QY-hZ8k"/><path d="M278.106,15.394a.488.488,0,0,1,.25.383l.01.114c.011.123.2,2.869.2,2.9v.094a.367.367,0,0,1-.367.367H278.2a1.217,1.217,0,0,1-.548-.227c-.806-.452-3.9-2.172-4.19-2.322-.366-.19-.525-.185-1.025.059-1.085.527-4.965,2.416-5.011,2.437a.6.6,0,0,1-.209.053h-.041a.281.281,0,0,1-.281-.282V18.94a.691.691,0,0,1,.072-.231c.065-.143,1.661-3.241,2.247-4.461a.823.823,0,0,0,.1-.353.489.489,0,0,0-.113-.313l-.109-.132c-.111-.132-2.561-2.557-3.788-3.909a.773.773,0,0,1-.21-.391.238.238,0,0,1-.006-.055V9.086c0-.23.2-.417.587-.417l6.167,0a.977.977,0,0,0,.812-.432s2.736-4.221,2.829-4.378a.487.487,0,0,1,.435-.281.4.4,0,0,1,.362.307c.05.184.483,1.925.483,1.925s-1.534,2.388-1.952,3.044a5.034,5.034,0,0,1-.3.434l-.139.177a1.482,1.482,0,0,1-1.107.492h-2.683a.245.245,0,0,0-.246.244.316.316,0,0,0,.1.208c.118.126,1.787,1.828,1.873,1.92a1.464,1.464,0,0,1,.146.175.5.5,0,0,1,.083.274.467.467,0,0,1-.021.141.9.9,0,0,1-.072.187l-1.122,2.21a.287.287,0,0,0-.03.128.284.284,0,0,0,.284.284.279.279,0,0,0,.126-.03l3.25-1.582a.981.981,0,0,1,.94.045Z" id="el_vVEydD7CKJS"/></g><g id="el_pR0-xRqb3wa"><g id="el_Iytx6Aef0yI_an_SqzWLe1Ij" data-animator-group="true" data-animator-type="0"><path d="M131.247,52.565a7.177,7.177,0,1,0,7.176,7.177A7.176,7.176,0,0,0,131.247,52.565Zm0,10.255a3.079,3.079,0,1,1,3.079-3.078A3.079,3.079,0,0,1,131.247,62.82Z" id="el_Iytx6Aef0yI"/></g></g><g id="el_bBLQLgR3ctn_an_eZo_YfENL" data-animator-group="true" data-animator-type="0"><g id="el_bBLQLgR3ctn"><path d="M171,31.46a7.176,7.176,0,1,0,7.176,7.176A7.176,7.176,0,0,0,171,31.46Zm0,10.255a3.079,3.079,0,1,1,3.079-3.079A3.08,3.08,0,0,1,171,41.715Z" id="el_kEPQ71YvFUn"/></g></g><g id="el_ZcscS6qVcyC_an_rxf6NB5eh" data-animator-group="true" data-animator-type="0"><g id="el_ZcscS6qVcyC_an_SfIwmPIFa" data-animator-group="true" data-animator-type="1"><g id="el_ZcscS6qVcyC"><path d="M111.071,72.386l.33-3.146L81.974,66.147a12.593,12.593,0,0,0-.216-2.095l28.151-9.146-.987-3L80.774,61.049a12.62,12.62,0,0,0-1.049-1.826l21.99-19.8L99.6,37.075l-22,19.805a12.576,12.576,0,0,0-1.7-1.235l12.042-27.04-2.887-1.287L73.025,54.345a12.637,12.637,0,0,0-2.064-.431V24.323l-3.163,0V53.913a12.5,12.5,0,0,0-2.063.431L53.7,27.317,50.817,28.6,62.856,55.644a12.583,12.583,0,0,0-1.7,1.236l-22-19.8-2.116,2.352,21.989,19.8a12.809,12.809,0,0,0-1.049,1.826L29.837,51.905l-.989,3L57,64.054a12.593,12.593,0,0,0-.216,2.095L27.356,69.242l.329,3.145,29.427-3.094a12.482,12.482,0,0,0,.642,2.008L32.137,86.091l1.581,2.738,25.635-14.8a12.639,12.639,0,0,0,1.407,1.563L43.36,99.537l2.558,1.858L63.307,77.463a12.442,12.442,0,0,0,1.927.851l-6.152,28.943,3.095.654L68.329,78.97c.348.029,1.758.029,2.106,0l6.152,28.941,3.079-.655L73.514,78.312a12.538,12.538,0,0,0,1.927-.851L92.83,101.393,95.4,99.536,78,75.591a12.639,12.639,0,0,0,1.407-1.563l25.632,14.8,1.581-2.737L81,71.3a12.643,12.643,0,0,0,.641-2.008ZM78.83,66.414a9.446,9.446,0,0,1-9.447,9.448h0a9.449,9.449,0,1,1,9.448-9.449Zm28.529-29.331a3.6,3.6,0,0,0,1.033-3.464,51.082,51.082,0,0,1,9.042,15.565,3.387,3.387,0,0,0-3.423-.592A48.127,48.127,0,0,0,107.359,37.083Zm10.17,29.582a48.173,48.173,0,0,0-1.423-11.628,3.142,3.142,0,0,0,2.35-2.725,51.122,51.122,0,0,1,2.054,14.353C120.51,67.925,117.529,67.232,117.529,66.665Zm-4.888,21.111a47.842,47.842,0,0,0,4.143-12.711,2.986,2.986,0,0,0,3.228-1.331,50.784,50.784,0,0,1-5.591,17.116A3.312,3.312,0,0,0,112.641,87.776Zm-55.668,28.5a50.893,50.893,0,0,1-16.2-7.241,3.483,3.483,0,0,0,3.049-1.566,47.95,47.95,0,0,0,12.339,5.5A3.663,3.663,0,0,0,56.973,116.273ZM38.422,103.522a3.767,3.767,0,0,0-.426,3.5,51.406,51.406,0,0,1-11.938-13.2,3.351,3.351,0,0,0,3.416-.231A48.43,48.43,0,0,0,38.422,103.522ZM21.955,75.034a47.747,47.747,0,0,0,4.122,12.689,3.328,3.328,0,0,0-1.768,3.1,50.759,50.759,0,0,1-5.571-17.084A3.315,3.315,0,0,0,21.955,75.034Zm-.728-8.369c0,.556-2.981,1.239-2.981,0a51.069,51.069,0,0,1,2.076-14.431,3.15,3.15,0,0,0,2.323,2.794A48.246,48.246,0,0,0,21.227,66.665ZM31.435,37.026a48.07,48.07,0,0,0-6.693,11.552,3.689,3.689,0,0,0-3.443.659,51.069,51.069,0,0,1,9.039-15.568A3.569,3.569,0,0,0,31.435,37.026ZM46.878,24.11a48.3,48.3,0,0,0-10.918,7.9,3.324,3.324,0,0,0-3.281-.926A51.328,51.328,0,0,1,47.035,20.7,3.811,3.811,0,0,0,46.878,24.11ZM67.57,15.579a3.421,3.421,0,0,0-1.434,3.056,47.887,47.887,0,0,0-13.227,2.794,3.053,3.053,0,0,0-2.556-2.216A50.857,50.857,0,0,1,67.57,15.579ZM78.234,117.022a50.833,50.833,0,0,1-17.7,0,3.184,3.184,0,0,0,2.022-2.693,48.165,48.165,0,0,0,13.65.008A3.177,3.177,0,0,0,78.234,117.022Zm4.366-4.051a47.89,47.89,0,0,0,12.3-5.483c.688,1.69,2.963,1.578,3.037,1.574a50.856,50.856,0,0,1-16.151,7.206A3.67,3.67,0,0,0,82.6,112.971ZM112.635,93.9a51.423,51.423,0,0,1-11.9,13.13,3.763,3.763,0,0,0-.434-3.482,48.477,48.477,0,0,0,8.935-9.9A3.545,3.545,0,0,0,112.635,93.9Zm-20.9-73.23a51.293,51.293,0,0,1,14.478,10.539,3.055,3.055,0,0,0-3.369.85,48.322,48.322,0,0,0-10.885-7.926A3.8,3.8,0,0,0,91.731,20.67Zm-19.08-2.035a3.415,3.415,0,0,0-1.433-3.057A50.933,50.933,0,0,1,88.543,19.26a3.052,3.052,0,0,0-2.617,2.173A47.95,47.95,0,0,0,72.651,18.635Z" id="el_lUtZa0zLRno"/><path d="M82.315,66.376A12.937,12.937,0,1,0,69.378,79.312h0A12.972,12.972,0,0,0,82.315,66.376Zm-12.937-9.1a9.1,9.1,0,1,1-9.1,9.1A9.126,9.126,0,0,1,69.378,57.274Zm45.868-12.256a6.722,6.722,0,1,0,6.721,6.722A6.722,6.722,0,0,0,115.246,45.018Zm0,9.606a2.884,2.884,0,1,1,2.883-2.884A2.884,2.884,0,0,1,115.246,54.624Zm2.106,10.336a6.721,6.721,0,1,0,6.722,6.721A6.721,6.721,0,0,0,117.352,64.96Zm0,9.605a2.884,2.884,0,1,1,2.884-2.884A2.884,2.884,0,0,1,117.352,74.565Zm-6.225,9.444a6.722,6.722,0,1,0,6.722,6.722A6.722,6.722,0,0,0,111.127,84.009Zm0,9.606a2.884,2.884,0,1,1,2.884-2.884A2.885,2.885,0,0,1,111.127,93.615ZM97.733,98.973a6.722,6.722,0,1,0,6.722,6.722A6.722,6.722,0,0,0,97.733,98.973Zm0,9.606a2.884,2.884,0,1,1,2.884-2.884A2.885,2.885,0,0,1,97.733,108.579Zm-18.341-1.508a6.722,6.722,0,1,0,6.722,6.721A6.721,6.721,0,0,0,79.392,107.071Zm0,9.605a2.884,2.884,0,1,1,2.884-2.884A2.884,2.884,0,0,1,79.392,116.676Zm-20.047-9.605a6.722,6.722,0,1,0,6.721,6.721A6.722,6.722,0,0,0,59.345,107.071Zm0,9.605a2.884,2.884,0,1,1,2.884-2.884A2.884,2.884,0,0,1,59.345,116.676ZM41.031,98.912a6.722,6.722,0,1,0,6.722,6.722A6.722,6.722,0,0,0,41.031,98.912Zm0,9.606a2.884,2.884,0,1,1,2.884-2.884A2.884,2.884,0,0,1,41.031,108.518ZM27.606,84.042a6.722,6.722,0,1,0,6.722,6.722A6.722,6.722,0,0,0,27.606,84.042Zm0,9.606a2.884,2.884,0,1,1,2.884-2.884A2.884,2.884,0,0,1,27.606,93.648ZM21.42,64.961a6.722,6.722,0,1,0,6.721,6.721A6.722,6.722,0,0,0,21.42,64.961Zm0,9.605A2.884,2.884,0,1,1,24.3,71.682,2.884,2.884,0,0,1,21.42,74.566Zm2.094-29.549a6.722,6.722,0,1,0,6.721,6.722A6.723,6.723,0,0,0,23.514,45.017Zm0,9.606A2.884,2.884,0,1,1,26.4,51.739,2.884,2.884,0,0,1,23.514,54.623ZM33.54,27.65a6.722,6.722,0,1,0,6.721,6.722A6.722,6.722,0,0,0,33.54,27.65Zm0,9.606a2.884,2.884,0,1,1,2.883-2.884A2.884,2.884,0,0,1,33.54,37.256ZM49.765,15.85a6.722,6.722,0,1,0,6.721,6.722A6.723,6.723,0,0,0,49.765,15.85Zm0,9.606a2.884,2.884,0,1,1,2.884-2.884A2.884,2.884,0,0,1,49.765,25.456ZM69.38,11.694A6.722,6.722,0,1,0,76.1,18.415,6.722,6.722,0,0,0,69.38,11.694Zm0,9.6a2.884,2.884,0,1,1,2.884-2.884A2.884,2.884,0,0,1,69.38,21.3Zm19.6-5.449a6.722,6.722,0,1,0,6.722,6.722A6.722,6.722,0,0,0,88.983,15.85Zm0,9.606a2.884,2.884,0,1,1,2.884-2.884A2.884,2.884,0,0,1,88.983,25.456Zm16.238,2.194a6.722,6.722,0,1,0,6.721,6.722A6.723,6.723,0,0,0,105.221,27.65Zm0,9.606a2.884,2.884,0,1,1,2.884-2.884A2.884,2.884,0,0,1,105.221,37.256Z" id="el_lQKVn3bbpHf"/></g></g></g></svg>